<?xml version="1.0" encoding="utf-8" ?>
<svg baseProfile="full" height="200mm" version="1.1" viewBox="0,0,200,200" width="200mm" xmlns="http://www.w3.org/2000/svg" xmlns:ev="http://www.w3.org/2001/xml-events" xmlns:xlink="http://www.w3.org/1999/xlink"><defs /><rect fill="#1a1a1a" height="200" width="200" x="0" y="0" /><rect fill="#1a1a1a" height="200" width="180" x="10" y="0" /><text alignment-baseline="middle" fill="#e1ed5e" style="dominant-baseline: central; font-size:9.0px; font-family:Arial;" text-anchor="middle" x="100.0" y="100.0">2026</text><line stroke="#e1ed5e" stroke-width="0.3" x1="100.0" x2="100.0" y1="15.0" y2="10.0" /><path d="M 100.0 14.0 a86.0,86.0 0 0,1 42.46469731375804,11.215312516191453" fill="none" id="id13" stroke="none" /><text fill="#e1ed5e" style="font-size:6.75px; font-family:Arial;" text-anchor="middle"><textPath startOffset="22.20632615414155" xlink:href="#id13">January</textPath></text><path d="M 100.0 79.0 l 0.0 -33.84121486178048 a54.84121486178048,54.84121486178048 0 0,0 0.9440013634344816,0.00812531776694737 l -0.5825208841619532 33.83620092062209" fill="#8eff24" stroke="none" /><path d="M 101.08401301168833 79.027996857942 l 1.8205326334888445 -35.221178803271215 a56.268197790099784,56.268197790099784 0 0,0 0.966842914574623,0.058322604940612914 l -2.4265375969030796 35.1846229289503" fill="#7cff26" stroke="none" /><path d="M 101.44485096284872 79.0497635885617 l 0.8412686903730373 -12.198336300449016 a33.227311295139835,33.227311295139835 0 0,0 0.5702594748514234,0.044263110555419434 l -1.051118354586802 12.182047927705133" fill="#ff3f05" stroke="none" /><path d="M 102.16513564639614 79.11191278185805 l 3.0920606923134337 -29.830571369667677 a50.9903955886845,50.9903955886845 0 0,0 0.872259423650776,0.09800850952829199 l -3.6050868194739354 29.772926906668783" fill="#beff1e" stroke="none" /><path d="M 102.88285421437855 79.19881850522331 l 2.4492999672942846 -17.67287880903878 a38.841796875,38.841796875 0 0,0 0.6614776865899668,0.09748461621008282 l -2.753146634312907 17.62809970866773" fill="#ff960d" stroke="none" /><path d="M 103.95276090670814 79.375362276772 l 2.2896683907805753 -11.946986468631055 a33.16441807162978,33.16441807162978 0 0,0 0.559742084526719,0.11227899637592462 l -2.49497688477442 11.905803516177922" fill="#ff3e05" stroke="none" /><path d="M 104.66035177308747 79.52364482259891 l 4.00678158640587 -17.604740344989665 a39.05494894192913,39.05494894192913 0 0,0 0.6542193306980344,0.1548325785973932 l -4.309224604066428 17.533161854251404" fill="#ff990e" stroke="none" /><path d="M 105.01212808612495 79.60689891045804 l 8.484630925321603 -34.52185043844545 a56.54922108335596,56.54922108335596 0 0,0 0.9432709284421414,0.24046076246323694 l -9.07761074244877 34.370686679813346" fill="#79ff26" stroke="none" /><path d="M 105.36241919743992 79.69619591428918 l 4.544380513154252 -17.206452579100073 a38.79644359430152,38.79644359430152 0 0,0 0.6442096081879135,0.17608682107668858 l -4.839888010565876 17.12567921719709" fill="#ff950d" stroke="none" /><path d="M 105.71112130821622 79.79150937346287 l 2.270491272787581 -8.034009282512178 a29.348678684156937,29.348678684156937 0 0,0 0.4849656476330664,0.14157477117776782 l -2.4084471381440746 7.993736182415706" fill="#ff0000" stroke="none" /><path d="M 106.0581310904928 79.89281104454417 l 2.892497882947828 -9.60032072877396 a31.026599727633723,31.026599727633723 0 0,0 0.5100398124299432,0.15847185246857223 l -3.0573230680884893 9.549108741422868" fill="#ff1c02" stroke="none" /><path d="M 106.40334571778207 80.00007090966166 l 3.093370615766968 -9.66169807038071 a31.144818942183683,31.144818942183683 0 0,0 0.5091691114762571,0.1678650506993412 l -3.259222549485642 9.607019295422132" fill="#ff1e03" stroke="none" /><path d="M 106.74666289553966 80.11325718540242 l 5.795521659553953 -17.08311953694557 a39.03943026871776,39.03943026871776 0 0,0 0.6345171477062057,0.22137057376390523 l -6.088720811323433 16.98082811000946" fill="#ff990e" stroke="none" /><path d="M 107.08798089147638 80.2323363322302 l 12.089648878910987 -33.716811114309266 a56.818751537893704,56.818751537893704 0 0,0 0.9178059404376261,0.3380356735461334 l -12.668237145121191 33.50371217295681" fill="#76ff27" stroke="none" /><path d="M 107.4271985657038 80.35727306442388 l 4.277964377164027 -11.313940964064173 a33.09571160993076,33.09571160993076 0 0,0 0.5311339037553637,0.20607170299679925 l -4.472081445919058 11.238626557176827" fill="#ff3d05" stroke="none" /><path d="M 107.76421540070413 80.48803036053334 l 6.611335873889019 -16.61470968926755 a38.88178794461037,38.88178794461037 0 0,0 0.6197315049668985,0.2528040414073852 l -6.896351248444306 16.498444761676584" fill="#ff960d" stroke="none" /><path d="M 108.09893153111575 80.62456947434976 l 11.23206333324984 -26.870959698446114 a50.1240059373303,50.1240059373303 0 0,0 0.7931914903614063,0.3396032011980586 l -11.692938581401561 26.673636969285262" fill="#caff1d" stroke="none" /><path d="M 108.76106565485865 80.91482961587045 l 14.866582421765735 -32.38547338037066 a56.63473248073922,56.63473248073922 0 0,0 0.8824818316626782,0.41433705275510285 l -15.42184246472801 32.12477134497556" fill="#78ff26" stroke="none" /><path d="M 109.08828744355905 81.06846463323043 l 7.805991321095052 -16.26042328499851 a39.03704149555389,39.03704149555389 0 0,0 0.6032686483911097,0.2960213057985428 l -8.084731236496593 16.123646819065137" fill="#ff990e" stroke="none" /><path d="M 109.41281617654863 81.2277094730956 l 16.04641224031088 -32.00189049055043 a56.79955782904561,56.79955782904561 0 0,0 0.8702220019567342,0.44576150900817124 l -16.594894729856367 31.720936456229758" fill="#76ff27" stroke="none" /><line stroke="#e1ed5e" stroke-width="0.3" x1="143.23703022742887" x2="145.7803849466894" y1="26.81831364943548" y2="22.513508569990506" /><path d="M 143.74570117128098 25.957352633546492 a86.0,86.0 0 0,1 28.547481713284135,27.462654790039103" fill="none" id="id14" stroke="none" /><text fill="#e1ed5e" style="font-size:6.75px; font-family:Arial;" text-anchor="middle"><textPath startOffset="19.985693538727396" xlink:href="#id14">February</textPath></text><path d="M 110.99172775467656 82.1063720568725 l 8.974175728458167 -14.609219329777778 a38.14541103125849,38.14541103125849 0 0,0 0.5565249221364474,0.34849585518614895 l -9.224319802966878 14.452579133268685" fill="#ff8b0c" stroke="none" /><path d="M 111.2981086023043 82.29822771554956 l 20.55116354012676 -32.19937336180566 a59.19882154917865,59.19882154917865 0 0,0 0.8542473792434884,0.5556262578967252 l -21.102377945154526 31.840848179749408" fill="#5aff2a" stroke="none" /><path d="M 111.60114157652 82.49532879139004 l 9.836459438945004 -14.841986644146301 a38.80563118339329,38.80563118339329 0 0,0 0.553618330149321,0.3738055678157964 l -10.090482463500868 14.670469164031834" fill="#ff950d" stroke="none" /><path d="M 111.90073688211348 82.69761687909136 l 4.822686503631444 -7.011664099832418 a29.51009627214567,29.51009627214567 0 0,0 0.4160485987652819,0.291468631349452 l -4.942666241980377 6.92761062571903" fill="#ff0300" stroke="none" /><path d="M 112.19680574252982 82.90503203632743 l 6.99597959163433 -9.805521996342774 a33.04541373583017,33.04541373583017 0 0,0 0.46020409619382746,0.3343578474470837 l -7.163729004181946 9.683644914079016" fill="#ff3c05" stroke="none" /><path d="M 113.06298171725822 83.55741782278167 l 11.095979430724823 -13.966685215931745 a38.837854564044264,38.837854564044264 0 0,0 0.5198661392856861,0.4203622637023693 l -11.334748968575 13.773616854965248" fill="#ff960d" stroke="none" /><path d="M 113.34407831869373 83.78471172551755 l 8.065545454420663 -9.800987487547612 a33.693005129140644,33.693005129140644 0 0,0 0.4446553537494824,0.3723860711617929 l -8.233058345129264 9.660700258992001" fill="#ff4606" stroke="none" /><path d="M 114.42810811169701 84.74124197986012 l 10.338070887632362 -10.933250627748524 a36.04698238740497,36.04698238740497 0 0,0 0.4471829966250967,0.4301896884507191 l -10.524737127869876 10.753677852535503" fill="#ff6b09" stroke="none" /><path d="M 116.82858285166822 87.43820079747576 l 6.893526730086328 -5.145715438064583 a29.602272847797312,29.602272847797312 0 0,0 0.3012910696260481,0.41096068037221534 l -6.981080412226002 5.026292314020874" fill="#ff0400" stroke="none" /><path d="M 117.04232023915458 87.72973835380427 l 14.634455891074746 -10.53662883417954 a39.03296554693864,39.03296554693864 0 0,0 0.3878898724417107,0.5486427163294486 l -14.81365838332034 10.283159617518299" fill="#ff990e" stroke="none" /><path d="M 117.2510076193507 88.02491185347247 l 29.371501446430045 -20.38874056390331 a56.75452193778849,56.75452193778849 0 0,0 0.5501824823428993,0.807324903885679 l -29.718108394441675 19.880137636747225" fill="#76ff27" stroke="none" /><path d="M 117.65298651832404 88.62581576622439 l 15.331211789589483 -9.878216767503597 a39.23801583075957,39.23801583075957 0 0,0 0.36093818269367006,0.570917525529324 l -15.498977568529108 9.612851594260066" fill="#ff9c0e" stroke="none" /><line stroke="#e1ed5e" stroke-width="0.3" x1="172.23445277983987" x2="176.4835382374775" y1="55.19839476539836" y2="52.563006222186495" /><path d="M 173.08426987136738 54.67131705675599 a86.0,86.0 0 0,1 12.851231095245387,41.99856678651699" fill="none" id="id15" stroke="none" /><text fill="#e1ed5e" style="font-size:6.75px; font-family:Arial;" text-anchor="middle"><textPath startOffset="22.20632615414155" xlink:href="#id15">March</textPath></text><path d="M 118.03404312379186 89.2402003453031 l 15.505298054855649 -9.25105366064632 a39.05536655961512,39.05536655961512 0 0,0 0.33948472978442085,0.5802894487935779 l -15.662242459110397 8.982784799498848" fill="#ff990e" stroke="none" /><path d="M 118.21658344932153 89.55222093294921 l 15.633710458608956 -8.966420806853941 a39.02247499066658,39.02247499066658 0 0,0 0.3291682505930344,0.585553588224578 l -15.785736350494425 8.695983708694568" fill="#ff990e" stroke="none" /><path d="M 118.73160827565052 90.50648371742162 l 33.69677652807731 -17.07813295751817 a58.77744530401507,58.77744530401507 0 0,0 0.44961943106041635,0.9064053368682241 l -33.985755972091134 16.495568032151" fill="#5fff29" stroke="none" /><path d="M 118.89224826269711 90.83032412892265 l 56.676744788091334 -27.509027613232025 a84.0,84.0 0 0,0 0.6201672246329752,1.3062303374378386 l -57.14187020656606 26.529354860153646" fill="#4dd2ff" stroke="none" /><path d="M 119.34039704204932 91.81776055985345 l 16.53412070913764 -6.995002960917225 a38.95291658888814,38.95291658888814 0 0,0 0.2559360819903544,0.6197695232075668 l -16.65207847801419 6.709358867256355" fill="#ff980e" stroke="none" /><path d="M 119.47837535516314 92.15188598940014 l 16.55446430950225 -6.670028732706476 a38.847676932018736,38.847676932018736 0 0,0 0.2445673077392739,0.6223971219649898 l -16.666825167123225 6.384082605845702" fill="#ff960d" stroke="none" /><path d="M 119.61058180528143 92.48833698450437 l 16.690473975322003 -6.393141076403647 a38.87300126849715,38.87300126849715 0 0,0 0.23396995197659717,0.626923148755684 l -16.798048515800225 6.10489479061863" fill="#ff960d" stroke="none" /><path d="M 120.08093135843002 93.85539295169968 l 16.305602829023556 -4.9893862133014615 a38.05188137430424,38.05188137430424 0 0,0 0.18626233376588233,0.6279839934924246 l -16.38907105990114 4.707972833062507" fill="#ff8a0c" stroke="none" /><path d="M 120.28053869075195 94.5502522615342 l 17.18822050832605 -4.618785884924057 a38.797980427385966,38.797980427385966 0 0,0 0.16776185423004034,0.6464548587156234 l -17.265178694426393 4.322234600659583" fill="#ff950d" stroke="none" /><path d="M 120.37134235888165 94.90015583598534 l 17.57971064060374 -4.400975799047491 a39.12221879878835,39.12221879878835 0 0,0 0.15791813976937225,0.6546726407688683 l -17.65286158063393 4.097717926619217" fill="#ff9a0e" stroke="none" /><path d="M 120.6074358757038 95.95851677861258 l 61.00476759195013 -11.964115581123252 a83.16688612586547,83.16688612586547 0 0,0 0.2634183440634814,1.4071913271283158 l -61.20167165992347 10.912246176532374" fill="#4cdbff" stroke="none" /><path d="M 120.67395015179393 96.31383870115 l 10.521946858191672 -1.8760610823015298 a31.687888981044665,31.687888981044665 0 0,0 0.09112250609138686,0.5378101891006801 l -10.552681225803282 1.6946651048850119" fill="#ff2603" stroke="none" /><path d="M 120.73433829027371 96.67025291283417 l 17.813415036939265 -2.8606732465413787 a39.041651994807225,39.041651994807225 0 0,0 0.1008466443386711,0.6644533846011209 l -17.860017574717236 2.5536207495481755" fill="#ff990e" stroke="none" /><path d="M 120.96714384426684 98.82574320788733 l 17.83903326304711 -0.9990681672928331 a38.8669875738189,38.8669875738189 0 0,0 0.03166066267721764,0.6683065491394232 l -17.853587533957825 0.6918505115304101" fill="#ff960d" stroke="none" /><path d="M 120.98425023603335 99.18683210126433 l 18.02989032957783 -0.6986824818054008 a39.04342269379582,39.04342269379582 0 0,0 0.020243653132735732,0.6717882936177471 l -18.039245677166214 0.38822404076265465" fill="#ff990e" stroke="none" /><line stroke="#e1ed5e" stroke-width="0.3" x1="184.98032266829074" x2="189.97916517819016" y1="98.17113171792111" y2="98.06355123074" /><path d="M 185.9800911702706 98.14961562048488 a86.0,86.0 0 0,1 -9.607161424134198,41.387399972396054" fill="none" id="id16" stroke="none" /><text fill="#e1ed5e" style="font-size:6.75px; font-family:Arial;" text-anchor="middle"><textPath startOffset="21.466115282336823" xlink:href="#id16">April</textPath></text><path d="M 120.99980553446 99.90962569577887 l 17.771940261182813 -0.07648293376470958 a38.77210483556205,38.77210483556205 0 0,0 -0.002872279456397962,0.6674165908642268 l -17.770623684436913 -0.22944313530320196" fill="#ff950d" stroke="none" /><path d="M 120.95626037817324 101.35467743843564 l 16.689284661524983 1.0788469405612862 a37.7241183096321,37.7241183096321 0 0,0 -0.04746671557591184,0.6476456215522105 l -16.668241387284734 -1.3659656986102668" fill="#ff850c" stroke="none" /><path d="M 120.92983693683757 101.71520430193887 l 17.83576182406193 1.4616442307366797 a38.895552623540596,38.895552623540596 0 0,0 -0.06042776701758445,0.6668153736744328 l -17.807959460767268 -1.768440992959683" fill="#ff970d" stroke="none" /><path d="M 120.89721153311464 102.0752229133903 l 17.831314695813653 1.7707603128765563 a38.91902273749321,38.91902273749321 0 0,0 -0.07194032811893894,0.6660780914525949 l -17.79819206619366 -2.0774347262139425" fill="#ff970d" stroke="none" /><path d="M 120.8583938346157 102.4346265915055 l 11.954881546863577 1.3953937557737566 a33.03604239495656,33.03604239495656 0 0,0 -0.07078914515381839,0.5642591369371356 l -11.92909089246291 -1.6009706469982872" fill="#ff3c05" stroke="none" /><path d="M 120.13307415673323 105.97154293290107 l 33.8724183275423 10.046682325285012 a56.33095737595031,56.33095737595031 0 0,0 -0.2837289128320826,0.9272425035802748 l -33.69446264220409 -10.628251801417344" fill="#7cff26" stroke="none" /><path d="M 120.02730092923936 106.31721596034902 l 33.712353112574334 10.633894996441995 a56.34971676240497,56.34971676240497 0 0,0 -0.2997476197809673,0.9225283147073571 l -33.52431324177712 -11.212622211127147" fill="#7bff26" stroke="none" /><path d="M 119.9155931802556 106.66101706037122 l 33.95921064622438 11.358079040070926 a56.80829439103652,56.80829439103652 0 0,0 -0.318151252326768,0.9246964625616796 l -33.75866856295438 -11.940948205721906" fill="#76ff27" stroke="none" /><line stroke="#e1ed5e" stroke-width="0.3" x1="174.80103733775053" x2="179.2010983576182" y1="140.37084112569926" y2="142.7455964860345" /><path d="M 175.68104954172406 140.8457921977663 a86.0,86.0 0 0,1 -30.038265399797805,32.042727171017184" fill="none" id="id17" stroke="none" /><text fill="#e1ed5e" style="font-size:6.75px; font-family:Arial;" text-anchor="middle"><textPath startOffset="22.206326154141568" xlink:href="#id17">May</textPath></text><line stroke="#e1ed5e" stroke-width="0.3" x1="143.8653032363475" x2="146.44561519142675" y1="172.8068346515853" y2="177.08958963109032" /><path d="M 144.38136562736335 173.6633856474863 a86.0,86.0 0 0,1 -40.68145358897372,12.25698825130547" fill="none" id="id18" stroke="none" /><text fill="#e1ed5e" style="font-size:6.75px; font-family:Arial;" text-anchor="middle"><textPath startOffset="21.466115282336833" xlink:href="#id18">June</textPath></text><line stroke="#e1ed5e" stroke-width="0.3" x1="102.19456741930631" x2="102.32365962044197" y1="184.97166512339345" y2="189.96999836594603" /><path d="M 102.22038585953345 185.97133177190398 a86.0,86.0 0 0,1 -42.740103519485714,-10.115201625700543" fill="none" id="id19" stroke="none" /><text fill="#e1ed5e" style="font-size:6.75px; font-family:Arial;" text-anchor="middle"><textPath startOffset="22.20632615414155" xlink:href="#id19">July</textPath></text><line stroke="#e1ed5e" stroke-width="0.3" x1="58.666819895761336" x2="56.23545636021788" y1="174.27360380694188" y2="178.64263932499728" /><path d="M 58.180547188652646 175.14741091055294 a86.0,86.0 0 0,1 -31.652253787137756,-30.449443065178592" fill="none" id="id20" stroke="none" /><text fill="#e1ed5e" style="font-size:6.75px; font-family:Arial;" text-anchor="middle"><textPath startOffset="22.20632615414155" xlink:href="#id20">August</textPath></text><line stroke="#e1ed5e" stroke-width="0.3" x1="26.63291911575756" x2="22.317208475507996" y1="142.92168965132927" y2="145.44649492493687" /><path d="M 25.769776987707644 143.4266507060508 a86.0,86.0 0 0,1 -11.730757126820373,-40.83630448921669" fill="none" id="id21" stroke="none" /><text fill="#e1ed5e" style="font-size:6.75px; font-family:Arial;" text-anchor="middle"><textPath startOffset="21.46611528233685" xlink:href="#id21">September</textPath></text><line stroke="#e1ed5e" stroke-width="0.3" x1="15.007084014347285" x2="10.007500721073583" y1="101.09737516637583" y2="101.16192664675087" /><path d="M 14.007167355692545 101.11028546245083 a86.0,86.0 0 0,1 10.666146001902534,-42.60595125391555" fill="none" id="id22" stroke="none" /><text fill="#e1ed5e" style="font-size:6.75px; font-family:Arial;" text-anchor="middle"><textPath startOffset="22.20632615414155" xlink:href="#id22">October</textPath></text><line stroke="#e1ed5e" stroke-width="0.3" x1="26.266209847984243" x2="21.928928074336255" y1="57.711370442889674" y2="55.22380399835377" /><path d="M 25.398753493254645 57.213857153982495 a86.0,86.0 0 0,1 29.58750427330803,-30.492523968695096" fill="none" id="id23" stroke="none" /><text fill="#e1ed5e" style="font-size:6.75px; font-family:Arial;" text-anchor="middle"><textPath startOffset="21.46611528233685" xlink:href="#id23">November</textPath></text><line stroke="#e1ed5e" stroke-width="0.3" x1="56.762969772571076" x2="54.21961505331055" y1="26.818313649435495" y2="22.513508569990535" /><path d="M 56.25429882871897 25.957352633546506 a86.0,86.0 0 0,1 42.265352541879196,-11.944610805530505" fill="none" id="id24" stroke="none" /><text fill="#e1ed5e" style="font-size:6.75px; font-family:Arial;" text-anchor="middle"><textPath startOffset="22.20632615414155" xlink:href="#id24">December</textPath></text></svg>