<?xml version="1.0" encoding="utf-8" ?>
<svg baseProfile="full" height="200mm" version="1.1" viewBox="0,0,200,200" width="200mm" xmlns="http://www.w3.org/2000/svg" xmlns:ev="http://www.w3.org/2001/xml-events" xmlns:xlink="http://www.w3.org/1999/xlink"><defs /><rect fill="#1a1a1a" height="200" width="200" x="0" y="0" /><rect fill="#1a1a1a" height="200" width="180" x="10" y="0" /><text alignment-baseline="middle" fill="#e1ed5e" style="dominant-baseline: central; font-size:9.0px; font-family:Arial;" text-anchor="middle" x="100.0" y="100.0">2026</text><line stroke="#e1ed5e" stroke-width="0.3" x1="100.0" x2="100.0" y1="15.0" y2="10.0" /><path d="M 100.0 14.0 a86.0,86.0 0 0,1 42.46469731375804,11.215312516191453" fill="none" id="id13" stroke="none" /><text fill="#e1ed5e" style="font-size:6.75px; font-family:Arial;" text-anchor="middle"><textPath startOffset="22.20632615414155" xlink:href="#id13">January</textPath></text><path d="M 100.0 79.0 l 0.0 -22.746879462922756 a43.746879462922756,43.746879462922756 0 0,0 0.7530306169016594,0.006481572259922964 l -0.391550137629131 22.743509267271392" fill="#e2ff1b" stroke="none" /><path d="M 101.08401301168833 79.027996857942 l 1.2236982786057493 -23.674442896105543 a44.70604741238034,44.70604741238034 0 0,0 0.7681732644172615,0.04633830909983984 l -1.6310335918626226 23.649871317625397" fill="#d6ff1c" stroke="none" /><path d="M 101.44485096284872 79.0497635885617 l 0.565471351250407 -8.1992944581869 a29.21877043487281,29.21877043487281 0 0,0 0.5014634056903683,0.038923211528143396 l -0.7065249463031165 8.188345984470292" fill="#ff6209" stroke="none" /><path d="M 102.16513564639614 79.11191278185805 l 2.0783749090381995 -20.051065365927137 a41.158493608680246,41.158493608680246 0 0,0 0.7040714922676242,0.0791106357667023 l -2.423213104815549 20.012318776689835" fill="#fffd17" stroke="none" /><path d="M 102.88285421437855 79.19881850522331 l 1.6463336600692144 -11.879090206246119 a32.99263101443588,32.99263101443588 0 0,0 0.5618661080016122,0.08280445888107892 l -1.8505687484994824 11.848991263204072" fill="#ff950d" stroke="none" /><path d="M 103.95276090670814 79.375362276772 l 1.539034904860087 -8.030345903865168 a29.17649581263892,29.17649581263892 0 0,0 0.4924347700019521,0.09877778227659638 l -1.6770360843291645 8.002664165511364" fill="#ff6109" stroke="none" /><path d="M 104.66035177308747 79.52364482259891 l 2.6932182592288147 -11.833289917017597 a33.135904368939045,33.135904368939045 0 0,0 0.5550679175270374,0.13136664255349645 l -2.896509863718376 11.785177362323232" fill="#ff970d" stroke="none" /><path d="M 105.01212808612495 79.60689891045804 l 5.703071764236395 -23.204378860737236 a44.8949414282743,44.8949414282743 0 0,0 0.7488713773967102,0.19090398841519352 l -6.10165203031813 23.102771876153174" fill="#d4ff1c" stroke="none" /><path d="M 105.36241919743992 79.69619591428918 l 3.054573430314971 -11.565574829387 a32.962146127486335,32.962146127486335 0 0,0 0.5473319014462367,0.14960648424761488 l -3.253203220984919 11.511281804313091" fill="#ff940d" stroke="none" /><path d="M 105.71112130821622 79.79150937346287 l 1.5261447177549672 -5.40017967734661 a26.611689428965107,26.611689428965107 0 0,0 0.43973888355985513,0.1283718385452685 l -1.6188738190382495 5.373109509882639" fill="#ff3d05" stroke="none" /><path d="M 106.0581310904928 79.89281104454417 l 1.944235777554229 -6.452999377083551 a27.73952919122416,27.73952919122416 0 0,0 0.45600434432993336,0.1416827694987184 l -2.0550254945948807 6.418576472702313" fill="#ff4d07" stroke="none" /><path d="M 106.40334571778207 80.00007090966166 l 2.0792553937082943 -6.49425507659037 a27.81899200704069,27.81899200704069 0 0,0 0.4547970392341884,0.14993943333995294 l -2.1907352551849 6.4575019189911815" fill="#ff4e07" stroke="none" /><path d="M 106.74666289553966 80.11325718540242 l 3.895546692193894 -11.482674677748166 a33.125473260292225,33.125473260292225 0 0,0 0.5383961975075504,0.18783586162392632 l -4.092624893764718 11.413917962952032" fill="#ff970d" stroke="none" /><path d="M 107.08798089147638 80.2323363322302 l 8.126238579816128 -22.663259620667638 a45.07611036047717,45.07611036047717 0 0,0 0.7281244437952256,0.26817437754473755 l -8.51514534938393 22.520021975316578" fill="#d2ff1c" stroke="none" /><path d="M 107.4271985657038 80.35727306442388 l 2.8754978339719046 -7.604834885843448 a29.130313735282215,29.130313735282215 0 0,0 0.46749553036340663,0.1813810028021699 l -3.005976529334978 7.554211179150731" fill="#ff6108" stroke="none" /><path d="M 107.76421540070413 80.48803036053334 l 4.443908436103297 -11.167825982513781 a33.019511610884194,33.019511610884194 0 0,0 0.5262934835464985,0.21468832638100674 l -4.635485789238183 11.089676769949195" fill="#ff950d" stroke="none" /><path d="M 108.09893153111575 80.62456947434976 l 7.549799609880381 -18.061718050314997 a40.576136827229845,40.576136827229845 0 0,0 0.6421004435148107,0.2749139000583166 l -7.859583811185507 17.929084622293892" fill="#fff617" stroke="none" /><path d="M 108.76106565485865 80.91482961587045 l 9.99279605518628 -21.76838102124288 a44.95241919486534,44.95241919486534 0 0,0 0.7004481435882915,0.3288697953989049 l -10.366022410074171 21.59314624320397" fill="#d3ff1c" stroke="none" /><path d="M 109.08828744355905 81.06846463323043 l 5.246913989193244 -10.929687069174664 a33.12386761062969,33.12386761062969 0 0,0 0.5118879422567547,0.2511811901604643 l -5.4342731984604296 10.837750718879368" fill="#ff970d" stroke="none" /><path d="M 109.41281617654863 81.2277094730956 l 10.785836339904845 -21.510550036320577 a45.06320902158029,45.06320902158029 0 0,0 0.6904102332518683,0.35365493715055196 l -11.154507060745468 21.321702573857525" fill="#d2ff1c" stroke="none" /><line stroke="#e1ed5e" stroke-width="0.3" x1="143.23703022742887" x2="145.7803849466894" y1="26.81831364943548" y2="22.513508569990506" /><path d="M 143.74570117128098 25.957352633546492 a86.0,86.0 0 0,1 28.547481713284135,27.462654790039103" fill="none" id="id14" stroke="none" /><text fill="#e1ed5e" style="font-size:6.75px; font-family:Arial;" text-anchor="middle"><textPath startOffset="19.985693538727396" xlink:href="#id14">February</textPath></text><path d="M 110.99172775467656 82.1063720568725 l 6.0321266363540005 -9.819805597971142 a32.52454483868915,32.52454483868915 0 0,0 0.4745189341135197,0.2971437130094354 l -6.200264722839783 9.714517543638761" fill="#ff8f0d" stroke="none" /><path d="M 111.2981086023043 82.29822771554956 l 13.813772400884815 -21.643291106249126 a46.6759100686478,46.6759100686478 0 0,0 0.6735399929679908,0.43808914716017144 l -14.184279419637086 21.402303034929428" fill="#bfff1e" stroke="none" /><path d="M 111.60114157652 82.49532879139004 l 6.611723548149204 -9.976263634849388 a32.96832170311147,32.96832170311147 0 0,0 0.47034068645462473,0.31757613104974625 l -6.782468929010371 9.860975591500972" fill="#ff950d" stroke="none" /><path d="M 111.90073688211348 82.69761687909136 l 3.2416409704446747 -4.7129950495222666 a26.7201886785391,26.7201886785391 0 0,0 0.37671503867451916,0.26391295886364263 l -3.322287148702845 4.656497247894688" fill="#ff3f05" stroke="none" /><path d="M 112.19680574252982 82.90503203632743 l 4.702452472405155 -6.590928482704944 a29.09650526581442,29.09650526581442 0 0,0 0.4052099639392418,0.29440227157337606 l -4.815207752698186 6.509006976314893" fill="#ff6008" stroke="none" /><path d="M 113.06298171725822 83.55741782278167 l 7.4583287764536355 -9.387916669096487 a32.98998113107673,32.98998113107673 0 0,0 0.44158912273177303,0.3570676934507216 l -7.6188212977499 9.258142878381635" fill="#ff950d" stroke="none" /><path d="M 113.34407831869373 83.78471172551755 l 5.42137718766219 -6.587880544697742 a29.531793520832007,29.531793520832007 0 0,0 0.38973876163705534,0.32639500458427684 l -5.533973486258363 6.4935843827196456" fill="#ff6609" stroke="none" /><path d="M 114.42810811169701 84.74124197986012 l 6.948889196815078 -7.3489481740856055 a31.114054594227255,31.114054594227255 0 0,0 0.3859872657597248,0.37131944384354537 l -7.074359706187222 7.228245643479758" fill="#ff7c0b" stroke="none" /><path d="M 116.82858285166822 87.43820079747576 l 4.6335872469165755 -3.4587697072408683 a26.782146544538197,26.782146544538197 0 0,0 0.2725879063669906,0.37180959794412455 l -4.692437765797192 3.37849766562525" fill="#ff4006" stroke="none" /><path d="M 117.04232023915458 87.72973835380427 l 9.836768730654924 -7.082352894704213 a33.12112790071599,33.12112790071599 0 0,0 0.32914101955909236,0.4655466302577442 l -9.957222370017899 6.911979764114675" fill="#ff970d" stroke="none" /><path d="M 117.2510076193507 88.02491185347247 l 19.74249464080423 -13.704597364549565 a45.03293747269781,45.03293747269781 0 0,0 0.4365525861195703,0.6405870523706894 l -19.975471692592535 13.362732288908468" fill="#d2ff1c" stroke="none" /><path d="M 117.65298651832404 88.62581576622439 l 10.305103644260369 -6.639791362005633 a33.25895552034972,33.25895552034972 0 0,0 0.3059386849626094,0.48392152827673546 l -10.417869925468933 6.461422186014692" fill="#ff980e" stroke="none" /><line stroke="#e1ed5e" stroke-width="0.3" x1="172.23445277983987" x2="176.4835382374775" y1="55.19839476539836" y2="52.563006222186495" /><path d="M 173.08426987136738 54.67131705675599 a86.0,86.0 0 0,1 12.851231095245387,41.99856678651699" fill="none" id="id15" stroke="none" /><text fill="#e1ed5e" style="font-size:6.75px; font-family:Arial;" text-anchor="middle"><textPath startOffset="22.20632615414155" xlink:href="#id15">March</textPath></text><path d="M 118.03404312379186 89.2402003453031 l 10.422118335025269 -6.218234285714431 a33.136185076922004,33.136185076922004 0 0,0 0.28803285765489645,0.49234152095482325 l -10.527610867150493 6.037913352405711" fill="#ff970d" stroke="none" /><path d="M 118.21658344932153 89.55222093294921 l 10.508432655644404 -6.026914049639953 a33.11407651618402,33.11407651618402 0 0,0 0.2793288390714138,0.4968948363585989 l -10.610619136008252 5.8451357033465605" fill="#ff970d" stroke="none" /><path d="M 118.73160827565052 90.50648371742162 l 22.649793073442034 -11.479322873694128 a46.3926757138404,46.3926757138404 0 0,0 0.35488184884419327,0.7154201520859452 l -22.844034935239637 11.087743133109234" fill="#c3ff1e" stroke="none" /><path d="M 118.89224826269711 90.83032412892265 l 38.09612294686159 -18.49060495659405 a63.346393650973575,63.346393650973575 0 0,0 0.46768282310752624,0.9850592994545401 l -38.40876396381088 17.832103241498974" fill="#33ff54" stroke="none" /><path d="M 119.34039704204932 91.81776055985345 l 11.113656892410425 -4.701796015440103 a33.067321794542075,33.067321794542075 0 0,0 0.21726539430486644,0.5261253856457249 l -11.192943973601489 4.509796059341076" fill="#ff960d" stroke="none" /><path d="M 119.47837535516314 92.15188598940014 l 11.127331148113885 -4.483359720293537 a32.996583382835965,32.996583382835965 0 0,0 0.20773148357510549,0.5286539673425897 l -11.202856181570692 4.291156748055164" fill="#ff950d" stroke="none" /><path d="M 119.61058180528143 92.48833698450437 l 11.218752082227228 -4.297245534723774 a33.0136055149227,33.0136055149227 0 0,0 0.1987032501954128,0.5324259214831011 l -11.291059920924265 4.1034964762113395" fill="#ff950d" stroke="none" /><path d="M 120.08093135843002 93.85539295169968 l 10.960055176416828 -3.3536906772254627 a32.461677478825266,32.461677478825266 0 0,0 0.15889852450881434,0.5357268319558491 l -11.016159598037344 3.1645344585230837" fill="#ff8e0d" stroke="none" /><path d="M 120.28053869075195 94.5502522615342 l 11.553319869925582 -3.1045861154373706 a32.96317913286363,32.96317913286363 0 0,0 0.14253226564191965,0.5492349620886918 l -11.605048467437806 2.9052547277998286" fill="#ff940d" stroke="none" /><path d="M 120.37134235888165 94.90015583598534 l 11.816465826304995 -2.9581818037281433 a33.181120810834365,33.181120810834365 0 0,0 0.13393669977818465,0.5552540896676484 l -11.865635326343998 2.7543424824010887" fill="#ff970e" stroke="none" /><path d="M 120.6074358757038 95.95851677861258 l 41.005268302140884 -8.041859493396695 a62.786403681605506,62.786403681605506 0 0,0 0.19886629472311124,1.0623516983504617 l -41.13762032077385 7.334829717583669" fill="#32ff4e" stroke="none" /><path d="M 120.67395015179393 96.31383870115 l 7.072484184628719 -1.261022557212891 a28.184024668082863,28.184024668082863 0 0,0 0.0810467040273161,0.4783422349600825 l -7.093142750176257 1.1390945339369707" fill="#ff5307" stroke="none" /><path d="M 120.73433829027371 96.67025291283417 l 11.973553736863527 -1.9228443715055525 a33.12696662676158,33.12696662676158 0 0,0 0.08556870036832435,0.563790822674403 l -12.00487833067115 1.7164544364390675" fill="#ff970d" stroke="none" /><path d="M 120.96714384426684 98.82574320788733 l 11.990773411266733 -0.6715386332752225 a33.009563319968066,33.009563319968066 0 0,0 0.026889262961551356,0.5675898423840613 l -12.000556282461782 0.46503768426816133" fill="#ff950d" stroke="none" /><path d="M 120.98425023603335 99.18683210126433 l 12.119060847304514 -0.4696298954217568 a33.12815682860933,33.12815682860933 0 0,0 0.017176642555771754,0.5700091439506152 l -12.125349184315931 0.26095060404614256" fill="#ff970d" stroke="none" /><line stroke="#e1ed5e" stroke-width="0.3" x1="184.98032266829074" x2="189.97916517819016" y1="98.17113171792111" y2="98.06355123074" /><path d="M 185.9800911702706 98.14961562048488 a86.0,86.0 0 0,1 -9.607161424134198,41.387399972396054" fill="none" id="id16" stroke="none" /><text fill="#e1ed5e" style="font-size:6.75px; font-family:Arial;" text-anchor="middle"><textPath startOffset="21.466115282336823" xlink:href="#id16">April</textPath></text><path d="M 120.99980553446 99.90962569577887 l 11.945675845105288 -0.05140914953621792 a32.94578646623938,32.94578646623938 0 0,0 -0.0024406594907135024,0.567123311460517 l -11.944790888325073 -0.15422364012798379" fill="#ff940d" stroke="none" /><path d="M 120.95626037817324 101.35467743843564 l 11.217952667144322 0.7251631307009002 a32.24136662547834,32.24136662547834 0 0,0 -0.04056799331475753,0.5535180373591151 l -11.203808115165227 -0.9181543045567856" fill="#ff8b0c" stroke="none" /><path d="M 120.92983693683757 101.71520430193887 l 11.988574464551311 0.9824660630547597 a33.02876374600258,33.02876374600258 0 0,0 -0.05131317865154437,0.5662366505615792 l -11.969886689622692 -1.1886841021649095" fill="#ff950d" stroke="none" /><path d="M 120.89721153311464 102.0752229133903 l 11.985585260687547 1.1902430677871718 a33.04453953464498,33.04453953464498 0 0,0 -0.061081570128210486,0.5655394785892776 l -11.963321389058285 -1.396378868261241" fill="#ff960d" stroke="none" /><path d="M 120.8583938346157 102.4346265915055 l 8.035652698956266 0.9379348139699359 a29.09020617867678,29.09020617867678 0 0,0 -0.06233406541611756,0.4968638324004994 l -8.0183171242933 -1.0761164006578303" fill="#ff6008" stroke="none" /><path d="M 120.13307415673323 105.97154293290107 l 22.767853339818387 6.753028010044408 a44.74823220805969,44.74823220805969 0 0,0 -0.22538880691864274,0.7365836619192161 l -22.648237760393613 -7.143938644515681" fill="#d6ff1c" stroke="none" /><path d="M 120.02730092923936 106.31721596034902 l 22.66026310802694 7.147731802578587 a44.76084161065428,44.76084161065428 0 0,0 -0.23810156471164265,0.7328012658886961 l -22.53386929229905 -7.5367319684450775" fill="#d6ff1c" stroke="none" /><path d="M 119.9155931802556 106.66101706037122 l 22.826192096846825 7.634502954757387 a45.06908143258383,45.06908143258383 0 0,0 -0.25240653416371667,0.7336115371594444 l -22.691394731739877 -8.026287195006132" fill="#d2ff1c" stroke="none" /><path d="M 119.79798401119884 107.00284435728193 l 11.268766349561938 3.985931941349202 a32.952938905645226,32.952938905645226 0 0,0 -0.1937565944487695,0.5331349327769208 l -11.198485494107942 -4.1793146711322535" fill="#ff940d" stroke="none" /><path d="M 119.67450827220406 107.3425965602758 l 10.548710660964773 3.936816389153269 a32.25938807798442,32.25938807798442 0 0,0 -0.1986344483474483,0.5185718649291134 l -10.479381933023818 -4.117811820915526" fill="#ff8b0c" stroke="none" /><path d="M 119.12269723197855 108.67885076344098 l 10.84101870450271 4.9202046300618285 a32.90529714677712,32.90529714677712 0 0,0 -0.23852483172225483,0.5137612673645414 l -10.754719255940625 -5.1060859647052" fill="#ff940d" stroke="none" /><path d="M 118.97047184881838 109.00673069616215 l 21.507541739576205 10.211271386847221 a44.8084945978417,44.8084945978417 0 0,0 -0.33680356896507047,0.6939151099899246 l -21.328584913996423 -10.57997545280242" fill="#d5ff1c" stroke="none" /><path d="M 118.81262510543309 109.33194174019688 l 47.745680082969955 23.68408993339671 a74.2971489158523,74.2971489158523 0 0,0 -0.5781780431864877,1.1408001309721099 l -47.330923369997194 -24.50244427607151" fill="#41ffce" stroke="none" /><path d="M 118.64920377521936 109.65438752849418 l 1.6076574876407166 0.8322579658544303 a22.810308238752565,22.810308238752565 0 0,0 -0.1835116363597287,0.3471348578267793 l -1.5930933430560947 -0.8598078387673439" fill="#ff0701" stroke="none" /><line stroke="#e1ed5e" stroke-width="0.3" x1="174.80103733775053" x2="179.2010983576182" y1="140.37084112569926" y2="142.7455964860345" /><path d="M 175.68104954172406 140.8457921977663 a86.0,86.0 0 0,1 -30.038265399797805,32.042727171017184" fill="none" id="id17" stroke="none" /><text fill="#e1ed5e" style="font-size:6.75px; font-family:Arial;" text-anchor="middle"><textPath startOffset="22.206326154141568" xlink:href="#id17">May</textPath></text><path d="M 118.48025628344425 109.97397251340804 l 1.1982363831060572 0.6466997300449718 a22.36161337046877,22.36161337046877 0 0,0 -0.18573299497782353,0.33715933568001133 l -1.186926978676724 -0.6672295841227882" fill="#ff0000" stroke="none" /><path d="M 117.94076556474637 110.91462005526583 l 7.6769307010426955 4.670412836625855 a29.985990265581833,29.985990265581833 0 0,0 -0.2720662600078853,0.43865743891580644 l -7.595399801366848 -4.801866606906935" fill="#ff6c0a" stroke="none" /><path d="M 117.75023020441432 111.22182372390056 l 10.074652747099822 6.369268223876252 a32.91915289281607,32.91915289281607 0 0,0 -0.3069242875314615,0.4763533101433344 l -9.963523596191312 -6.541743133941039" fill="#ff940d" stroke="none" /><path d="M 117.55443506779139 111.5257021239791 l 15.919668792873349 10.45236487021564 a40.04436362430899,40.04436362430899 0 0,0 -0.3832758444899996,0.5729453839630771 l -15.737389842972629 -10.724847168384523" fill="#ffef16" stroke="none" /><path d="M 117.35343817320211 111.8261652097733 l 9.87111677495889 6.727050663994596 a32.945382246743925,32.945382246743925 0 0,0 -0.32339672426383126,0.46587710136948807 l -9.753859143532924 -6.895969027551104" fill="#ff940d" stroke="none" /><path d="M 116.93607887273984 112.41649034213515 l 9.553625148526733 7.004129780004465 a32.84607899069172,32.84607899069172 0 0,0 -0.3382187864276251,0.45309933534395574 l -9.431645095404015 -7.167541994857736" fill="#ff930d" stroke="none" /><path d="M 116.71984013943494 112.70617746262583 l 22.633863468675266 17.200516482183968 a49.42797113359508,49.42797113359508 0 0,0 -0.5206252501663492,0.6729783168299881 l -22.33443140129085 -17.587572793127208" fill="#a0ff22" stroke="none" /><path d="M 116.498646956653 112.99209946851258 l 9.352451074597836 7.364723601566301 a32.90409571661006,32.90409571661006 0 0,0 -0.35423936483610186,0.4419680744253721 l -9.22429379770688 -7.524619509569924" fill="#ff940d" stroke="none" /><path d="M 116.27256486870786 113.27417163493432 l 9.221283374380754 7.522163788775615 a32.90021071812588,32.90021071812588 0 0,0 -0.3617519171028849,0.43575348808721837 l -9.090435457384325 -7.679778533976604" fill="#ff940d" stroke="none" /><path d="M 116.0416608686014 113.55231037782055 l 9.09132748465221 7.6805321361440395 a32.90137846333499,32.90137846333499 0 0,0 -0.369212203825312,0.42947720504541986 l -8.957772771256119 -7.835886440350988" fill="#ff940d" stroke="none" /><path d="M 114.81725581225074 114.88116024355365 l 8.399540816257199 8.435766679255714 a32.904387652912334,32.904387652912334 0 0,0 -0.4048023865321538,0.3961843348302227 l -8.253088477349252 -8.579101117008507" fill="#ff940d" stroke="none" /><path d="M 114.55890576462653 115.13401014063108 l 8.670923018879376 9.013440914988859 a33.5070789206484,33.5070789206484 0 0,0 -0.4191004250806414,0.39628561084332936 l -8.514486759407928 -9.16136116257811" fill="#ff9c0e" stroke="none" /><path d="M 114.29624159901734 115.38237550388516 l 16.156516999206108 17.38398232817881 a44.73259115924911,44.73259115924911 0 0,0 -0.5685308920913412,0.5193394901880954 l -15.854886557647903 -17.659514584953488" fill="#d6ff1c" stroke="none" /><path d="M 114.0293411484842 115.62618273729858 l 3.757210781278018 4.184862398698035 a26.624029351896063,26.624029351896063 0 0,0 -0.343649845346233,0.3032310330356603 l -3.684618583025197 -4.248916573505984" fill="#ff3d05" stroke="none" /><path d="M 113.48314897796784 116.09983520530334 l 38.12425795165819 45.52306522379481 a80.37851894190734,80.37851894190734 0 0,0 -1.068383126667748,0.8792065780946124 l -37.33500469644575 -46.172566920746604" fill="#48f4ff" stroke="none" /><path d="M 112.63410532772338 116.77436683061366 l 7.294733303206861 9.685255044611514 a33.12506904079676,33.12506904079676 0 0,0 -0.4584115675799167,0.33912191862283736 l -7.12693676520838 -9.809386911974121" fill="#ff970d" stroke="none" /><path d="M 112.34349029814194 116.9893568818739 l 4.771803481090168 6.567824039413916 a29.118276976972858,29.118276976972858 0 0,0 -0.4080339606881003,0.291121396977372 l -4.658042192553183 -6.648989698235506" fill="#ff6008" stroke="none" /><path d="M 112.04921762599082 117.19931262002967 l 6.924828755830509 9.884649635241868 a33.06894990084325,33.06894990084325 0 0,0 -0.46901709812937853,0.3225942368196189 l -6.753654773078247 -10.00238466142658" fill="#ff960d" stroke="none" /><path d="M 111.45004920935366 117.60387380957326 l 4.483354865120976 6.892932235142867 a29.22271157495358,29.22271157495358 0 0,0 -0.42403295287724574,0.27063789295104473 l -4.364040110196799 -6.96908455691772" fill="#ff6209" stroke="none" /><path d="M 111.1453310114006 117.79835938074945 l 6.495135766554095 10.372303925440965 a33.23811575969472,33.23811575969472 0 0,0 -0.4875252861449384,0.2994778496489374 l -6.315631280476849 -10.482570241918282" fill="#ff980e" stroke="none" /><line stroke="#e1ed5e" stroke-width="0.3" x1="143.8653032363475" x2="146.44561519142675" y1="172.8068346515853" y2="177.08958963109032" /><path d="M 144.38136562736335 173.6633856474863 a86.0,86.0 0 0,1 -40.68145358897372,12.25698825130547" fill="none" id="id18" stroke="none" /><text fill="#e1ed5e" style="font-size:6.75px; font-family:Arial;" text-anchor="middle"><textPath startOffset="21.466115282336833" xlink:href="#id18">June</textPath></text><path d="M 110.8373102113329 117.98757091392108 l 6.285725797260408 10.432933663322583 a33.1801664036923,33.1801664036923 0 0,0 -0.4917492299739859,0.2905341128496146 l -6.10520869625804 -10.539586348465946" fill="#ff970e" stroke="none" /><path d="M 110.5260780823613 118.17145234162733 l 6.192613137977487 10.6904749923392 a33.35454220270752,33.35454220270752 0 0,0 -0.4992876890571435,0.28350858045489297 l -6.007676681999144 -10.795486738588721" fill="#ff9a0e" stroke="none" /><path d="M 110.21172684928248 118.3499491758327 l 11.537109753992763 20.73159424908099 a44.725595916313736,44.725595916313736 0 0,0 -0.6759468509247001,0.3685801180444345 l -11.178540091199412 -20.9271150188852" fill="#d6ff1c" stroke="none" /><path d="M 109.57404056367764 118.69057910512821 l 5.493648464786217 10.72477921144415 a33.049940356237144,33.049940356237144 0 0,0 -0.5085694798778985,0.25500729493999497 l -5.308225077225558 -10.817754347293446" fill="#ff960d" stroke="none" /><path d="M 108.92500713936063 119.00905698771935 l 10.51518909910978 22.395929291765516 a45.74160161816122,45.74160161816122 0 0,0 -0.7155990503058455,0.32849642607840657 l -10.128122053036513 -22.573612788177996" fill="#caff1d" stroke="none" /><path d="M 108.2653958097858 119.30500536409082 l 4.714755988037831 11.011981970868058 a32.97884263831284,32.97884263831284 0 0,0 -0.5237802501247324,0.21894018703197424 l -4.5245042784156375 -11.091507200920006" fill="#ff950d" stroke="none" /><path d="M 107.93186726928326 119.44442032107085 l 4.714332586170568 11.5568580797879 a33.481422211005786,33.481422211005786 0 0,0 -0.5355097173724087,0.21309036820350746 l -4.514701792756293 -11.636295292397476" fill="#ff9b0e" stroke="none" /><path d="M 107.2578585660854 119.70592522655815 l 3.8827603587950206 10.542143334204843 a32.23443875245887,32.23443875245887 0 0,0 -0.5223213800733623,0.1872858635897289 l -3.7007194180919236 -10.607416738834532" fill="#ff8b0c" stroke="none" /><path d="M 106.2309692047433 120.05430185196036 l 3.5352794658748983 11.378255807414654 a32.914818761559154,32.914818761559154 0 0,0 -0.5425067850066352,0.1634528440714826 l -3.338897706428017 -11.437424020591862" fill="#ff940d" stroke="none" /><path d="M 105.18746579009965 120.34920634021253 l 2.000340901375635 7.846866157757841 a29.097818979174676,29.097818979174676 0 0,0 -0.48641398922742474,0.11954872415853945 l -1.8649736274049993 -7.88013614023041" fill="#ff6008" stroke="none" /><path d="M 104.83641907484287 120.43548508189849 l 9.620558087365298 40.65006944839225 a62.77299706833929,62.77299706833929 0 0,0 -1.0536293632766924,0.23980261275907708 l -8.919408574695744 -40.809648794729014" fill="#32ff4e" stroke="none" /><path d="M 103.7750983002368 120.6578951692458 l 2.2417060129547544 12.26694621779315 a33.47009283681349,33.47009283681349 0 0,0 -0.5676384756551,0.09869122502330382 l -2.0302185658276044 -12.30371602133746" fill="#ff9b0e" stroke="none" /><path d="M 103.41894727170886 120.7198165907248 l 2.0307322476327268 12.306829082739782 a33.473247994541964,33.473247994541964 0 0,0 -0.5693068434375484,0.0889140205583642 l -1.8185895405866612 -12.339961410645252" fill="#ff9b0e" stroke="none" /><path d="M 102.34483914955558 120.86867818915974 l 3.0349632303503093 27.010667653735286 a48.180639597149295,48.180639597149295 0 0,0 -0.8249613082775359,0.08551061266624992 l -2.5695693254671705 -27.058907634857295" fill="#aeff20" stroke="none" /><path d="M 101.62511606390274 120.93702456842531 l 4.8753481917081976 62.81107370527595 a84.0,84.0 0 0,0 -1.4425489568842786,0.09948662193485935 l -3.7934364740449884 -62.885688671727095" fill="#4dd2ff" stroke="none" /><path d="M 100.90346689309514 120.98055641714683 l 0.5169506814309914 12.004770755338848 a33.01589609206366,33.01589609206366 0 0,0 -0.5679986347279515,0.01956302143889003 l -0.31023169502838766 -12.01189057520383" fill="#ff950d" stroke="none" /><line stroke="#e1ed5e" stroke-width="0.3" x1="102.19456741930631" x2="102.32365962044197" y1="184.97166512339345" y2="189.96999836594603" /><path d="M 102.22038585953345 185.97133177190398 a86.0,86.0 0 0,1 -42.740103519485714,-10.115201625700543" fill="none" id="id19" stroke="none" /><text fill="#e1ed5e" style="font-size:6.75px; font-family:Arial;" text-anchor="middle"><textPath startOffset="22.20632615414155" xlink:href="#id19">July</textPath></text><path d="M 100.54218724476979 120.99299961872073 l 0.6149889620566446 23.811816250775514 a44.81975660211809,44.81975660211809 0 0,0 -0.7714127012002241,0.013280569228533984 l -0.20501657096375248 -23.81887429728321" fill="#d5ff1c" stroke="none" /><path d="M 99.81925306533755 120.99922214144158 l -0.021318186279023075 2.4767519856525895 a23.476843730133226,23.476843730133226 0 0,0 -0.4040703656267013,-0.006956437786874861 l 0.06394824179839231 -2.4760180705865547" fill="#ff1001" stroke="none" /><path d="M 99.45781275523022 120.99299961872073 l -0.46917303247530195 18.165955372207673 a39.17201303982151,39.17201303982151 0 0,0 -0.6739071950106196,-0.02321072639572294 l 0.7818005791605646 -18.155187847385857" fill="#ffe515" stroke="none" /><path d="M 98.37488393609728 120.93702456842531 l -0.9381556533114646 12.086637009309046 a33.12299180172285,33.12299180172285 0 0,0 -0.5680682719424197,-0.04901532080982092 l 1.1460682429954259 -12.06869743622056" fill="#ff970d" stroke="none" /><path d="M 98.01472825383883 120.90594882070398 l -2.257685866523588 23.774611848496505 a44.88156849996605,44.88156849996605 0 0,0 -0.7684737640857613,-0.0796554477471319 l 2.666592227214943 -23.73222703229361" fill="#d4ff1c" stroke="none" /><line stroke="#e1ed5e" stroke-width="0.3" x1="58.666819895761336" x2="56.23545636021788" y1="174.27360380694188" y2="178.64263932499728" /><path d="M 58.180547188652646 175.14741091055294 a86.0,86.0 0 0,1 -31.652253787137756,-30.449443065178592" fill="none" id="id20" stroke="none" /><text fill="#e1ed5e" style="font-size:6.75px; font-family:Arial;" text-anchor="middle"><textPath startOffset="22.20632615414155" xlink:href="#id20">August</textPath></text><line stroke="#e1ed5e" stroke-width="0.3" x1="26.63291911575756" x2="22.317208475507996" y1="142.92168965132927" y2="145.44649492493687" /><path d="M 25.769776987707644 143.4266507060508 a86.0,86.0 0 0,1 -11.730757126820373,-40.83630448921669" fill="none" id="id21" stroke="none" /><text fill="#e1ed5e" style="font-size:6.75px; font-family:Arial;" text-anchor="middle"><textPath startOffset="21.46611528233685" xlink:href="#id21">September</textPath></text><line stroke="#e1ed5e" stroke-width="0.3" x1="15.007084014347285" x2="10.007500721073583" y1="101.09737516637583" y2="101.16192664675087" /><path d="M 14.007167355692545 101.11028546245083 a86.0,86.0 0 0,1 10.666146001902534,-42.60595125391555" fill="none" id="id22" stroke="none" /><text fill="#e1ed5e" style="font-size:6.75px; font-family:Arial;" text-anchor="middle"><textPath startOffset="22.20632615414155" xlink:href="#id22">October</textPath></text><line stroke="#e1ed5e" stroke-width="0.3" x1="26.266209847984243" x2="21.928928074336255" y1="57.711370442889674" y2="55.22380399835377" /><path d="M 25.398753493254645 57.213857153982495 a86.0,86.0 0 0,1 29.58750427330803,-30.492523968695096" fill="none" id="id23" stroke="none" /><text fill="#e1ed5e" style="font-size:6.75px; font-family:Arial;" text-anchor="middle"><textPath startOffset="21.46611528233685" xlink:href="#id23">November</textPath></text><line stroke="#e1ed5e" stroke-width="0.3" x1="56.762969772571076" x2="54.21961505331055" y1="26.818313649435495" y2="22.513508569990535" /><path d="M 56.25429882871897 25.957352633546506 a86.0,86.0 0 0,1 42.265352541879196,-11.944610805530505" fill="none" id="id24" stroke="none" /><text fill="#e1ed5e" style="font-size:6.75px; font-family:Arial;" text-anchor="middle"><textPath startOffset="22.20632615414155" xlink:href="#id24">December</textPath></text></svg>