<?xml version="1.0" encoding="utf-8" ?>
<svg baseProfile="full" height="200mm" version="1.1" viewBox="0,0,200,200" width="200mm" xmlns="http://www.w3.org/2000/svg" xmlns:ev="http://www.w3.org/2001/xml-events" xmlns:xlink="http://www.w3.org/1999/xlink"><defs /><rect fill="#1a1a1a" height="200" width="200" x="0" y="0" /><rect fill="#1a1a1a" height="200" width="180" x="10" y="0" /><text alignment-baseline="middle" fill="#e1ed5e" style="dominant-baseline: central; font-size:9.0px; font-family:Arial;" text-anchor="middle" x="100.0" y="100.0">2026</text><line stroke="#e1ed5e" stroke-width="0.3" x1="100.0" x2="100.0" y1="15.0" y2="10.0" /><path d="M 100.0 14.0 a86.0,86.0 0 0,1 42.46469731375804,11.215312516191453" fill="none" id="id13" stroke="none" /><text fill="#e1ed5e" style="font-size:6.75px; font-family:Arial;" text-anchor="middle"><textPath startOffset="22.20632615414155" xlink:href="#id13">January</textPath></text><path d="M 100.0 79.0 l 0.0 -26.8879937354003 a47.8879937354003,47.8879937354003 0 0,0 0.8243130917558256,0.007095123025673246 l -0.4628326124832972 26.884009988983188" fill="#b3ff20" stroke="none" /><path d="M 101.08401301168833 79.027996857942 l 1.4464749638649477 -27.98442192113266 a49.021780101932464,49.021780101932464 0 0,0 0.842329461629352,0.050811613427463494 l -1.9279664743339116 27.95537703832489" fill="#a6ff21" stroke="none" /><path d="M 101.44485096284872 79.0497635885617 l 0.6684165260888785 -9.691992186699018 a30.715013803355276,30.715013803355276 0 0,0 0.5271424908857311,0.04091640276316938 l -0.8351492063369508 9.679050521747385" fill="#ff730a" stroke="none" /><path d="M 102.16513564639614 79.11191278185805 l 2.456747160643361 -23.701401364786463 a44.82838713102569,44.82838713102569 0 0,0 0.7668499659724081,0.08616452876164954 l -2.864363830125494 23.65560088255421" fill="#d7ff1c" stroke="none" /><path d="M 102.88285421437855 79.19881850522331 l 1.9460519501355749 -14.041702008771281 a35.17591314504141,35.17591314504141 0 0,0 0.5990475086863909,0.08828403082944575 l -2.1874684392506216 14.006123493780867" fill="#ffaf10" stroke="none" /><path d="M 103.95276090670814 79.375362276772 l 1.8192192449031102 -9.492286214826601 a30.66504300276067,30.66504300276067 0 0,0 0.517558156919689,0.10381729734374133 l -1.9823438112899245 9.459564961405652" fill="#ff730a" stroke="none" /><path d="M 104.66035177308747 79.52364482259891 l 3.1835239554615122 -13.987563686551601 a35.345269696326184,35.345269696326184 0 0,0 0.59207755509947,0.1401256280334587 l -3.423825197523506 13.930692146377275" fill="#ffb110" stroke="none" /><path d="M 105.01212808612495 79.60689891045804 l 6.741327227731449 -27.428781800964895 a49.245062645997024,49.245062645997024 0 0,0 0.8214337010019933,0.20940174036971138 l -7.212469817418468 27.308677064426316" fill="#a4ff21" stroke="none" /><path d="M 105.36241919743992 79.69619591428918 l 3.6106645481857265 -13.671110539172998 a35.139878424293904,35.139878424293904 0 0,0 0.5834928466177841,0.1594906365506163 l -3.845455284027221 13.606933361796088" fill="#ffaf10" stroke="none" /><path d="M 105.71112130821622 79.79150937346287 l 1.8039823738107252 -6.383293038994936 a27.633308558080273,27.633308558080273 0 0,0 0.4566203993486092,0.13330001592564875 l -1.9135929908827616 6.351294694150584" fill="#ff4906" stroke="none" /><path d="M 106.0581310904928 79.89281104454417 l 2.298187735694898 -7.6277806416647875 a28.966473773624973,28.966473773624973 0 0,0 0.47617383084031906,0.14794952713752474 l -2.429146939245935 7.587090979644742" fill="#ff5b08" stroke="none" /><path d="M 106.40334571778207 80.00007090966166 l 2.457787939284327 -7.676547022640125 a29.060402951794437,29.060402951794437 0 0,0 0.47509216790038983,0.15663041817331005 l -2.5895629294271343 7.633102880207579" fill="#ff5c08" stroke="none" /><path d="M 106.74666289553966 80.11325718540242 l 4.604738651136733 -13.573118251414932 a35.33293958377575,35.33293958377575 0 0,0 0.5742746728232271,0.20035315716923593 l -4.8376953280232335 13.491844241073489" fill="#ffb110" stroke="none" /><path d="M 107.08798089147638 80.2323363322302 l 9.605636341574446 -26.789150735929727 a49.45921373964748,49.45921373964748 0 0,0 0.7989256882800119,0.29425107340476586 l -10.065344355627035 26.61983639471864" fill="#a1ff22" stroke="none" /><path d="M 107.4271985657038 80.35727306442388 l 3.398987886317276 -8.989310076690346 a30.610453387131024,30.610453387131024 0 0,0 0.4912494342121962,0.19059714845646217 l -3.553220485529139 8.929470224343337" fill="#ff720a" stroke="none" /><path d="M 107.76421540070413 80.48803036053334 l 5.252930732120958 -13.200950730201308 a35.2076874070928,35.2076874070928 0 0,0 0.5611705185544648,0.22891554467095263 l -5.47938512026381 13.108574299346778" fill="#ffaf10" stroke="none" /><path d="M 108.09893153111575 80.62456947434976 l 8.924255520185886 -21.34988944655162 a44.14001114886388,44.14001114886388 0 0,0 0.698497268384954,0.29906007723752515 l -9.290436546361155 21.193109841351305" fill="#dfff1b" stroke="none" /><path d="M 108.76106565485865 80.91482961587045 l 11.812004286958928 -25.731357722409058 a49.3130043533659,49.3130043533659 0 0,0 0.7683947376523381,0.3607716323763324 l -12.253177235910865 25.52422110739272" fill="#a3ff21" stroke="none" /><path d="M 109.08828744355905 81.06846463323043 l 6.2021250300099355 -12.919458157980397 a35.33104162242515,35.33104162242515 0 0,0 0.5459970558536824,0.26791838406822277 l -6.42359335287405 12.810784613777344" fill="#ffb110" stroke="none" /><path d="M 109.41281617654863 81.2277094730956 l 12.74941911971388 -25.426588098132328 a49.44396368655765,49.44396368655765 0 0,0 0.757527465152016,0.38803499017723775 l -13.18520707245465 25.20336058264259" fill="#a2ff22" stroke="none" /><line stroke="#e1ed5e" stroke-width="0.3" x1="143.23703022742887" x2="145.7803849466894" y1="26.81831364943548" y2="22.513508569990506" /><path d="M 143.74570117128098 25.957352633546492 a86.0,86.0 0 0,1 28.547481713284135,27.462654790039103" fill="none" id="id14" stroke="none" /><text fill="#e1ed5e" style="font-size:6.75px; font-family:Arial;" text-anchor="middle"><textPath startOffset="19.985693538727396" xlink:href="#id14">February</textPath></text><path d="M 110.99172775467656 82.1063720568725 l 7.130287188350343 -11.607520575799057 a34.6226109577405,34.6226109577405 0 0,0 0.5051288043960905,0.3163116109722263 l -7.329035145118697 11.483064623503886" fill="#ffa80f" stroke="none" /><path d="M 111.2981086023043 82.29822771554956 l 16.32859691293726 -25.583494941661645 a51.35026014015714,51.35026014015714 0 0,0 0.7409915265248926,0.4819615008720513 l -16.766555465246434 25.298634516630067" fill="#8dff24" stroke="none" /><path d="M 111.60114157652 82.49532879139004 l 7.815400861142645 -11.792462106890934 a35.14717827564238,35.14717827564238 0 0,0 0.5014252198208968,0.33856454673702013 l -8.017230775370082 11.656185647855244" fill="#ffaf10" stroke="none" /><path d="M 111.90073688211348 82.69761687909136 l 3.8317881029705854 -5.5710050942629215 a27.761560310044594,27.761560310044594 0 0,0 0.3913968344940309,0.2741984950869707 l -3.927116077048267 5.504221756412015" fill="#ff4a06" stroke="none" /><path d="M 112.19680574252982 82.90503203632743 l 5.558543220187318 -7.790820013017787 a30.570490019112338,30.570490019112338 0 0,0 0.4257372851166266,0.30931624339477115 l -5.6918258216577335 7.693984534806341" fill="#ff710a" stroke="none" /><path d="M 113.06298171725822 83.55741782278167 l 8.816132241115488 -11.097005415559204 a35.17278084519006,35.17278084519006 0 0,0 0.4708071027913758,0.38069326801793874 l -9.005842742471355 10.943606050277136" fill="#ffaf10" stroke="none" /><path d="M 113.34407831869373 83.78471172551755 l 6.408349597873722 -7.787217191884581 a31.085023359524314,31.085023359524314 0 0,0 0.4102371398829496,0.3435618068634134 l -6.541444274715789 7.6757542276273485" fill="#ff780b" stroke="none" /><path d="M 114.42810811169701 84.74124197986012 l 8.213948181178221 -8.686838684342579 a32.95533818220429,32.95533818220429 0 0,0 0.4088294194706517,0.3932935776156424 l -8.362260844261291 8.544162019964634" fill="#ff920d" stroke="none" /><path d="M 116.82858285166822 87.43820079747576 l 5.477140944567843 -4.088445554568182 a27.83479772775536,27.83479772775536 0 0,0 0.28330175940676566,0.3864232814499075 l -5.546705316488236 3.9935598294467805" fill="#ff4b07" stroke="none" /><path d="M 117.04232023915458 87.72973835380427 l 11.627571880246233 -8.371709208513677 a35.327803142917816,35.327803142917816 0 0,0 0.35106984218950815,0.4965633947278347 l -11.769954342239625 8.17031931345405" fill="#ffb110" stroke="none" /><path d="M 117.2510076193507 88.02491185347247 l 23.336654730525865 -16.199546345898856 a49.40818114249309,49.40818114249309 0 0,0 0.47896651792471634,0.7028242636904459 l -23.612045714119315 15.795444058938003" fill="#a2ff22" stroke="none" /><path d="M 117.65298651832404 88.62581576622439 l 12.18116808862366 -7.848578475872973 a35.49072255255893,35.49072255255893 0 0,0 0.3264680088783657,0.5163939885836597 l -12.314463693747982 7.6377368395751075" fill="#ffb310" stroke="none" /><line stroke="#e1ed5e" stroke-width="0.3" x1="172.23445277983987" x2="176.4835382374775" y1="55.19839476539836" y2="52.563006222186495" /><path d="M 173.08426987136738 54.67131705675599 a86.0,86.0 0 0,1 12.851231095245387,41.99856678651699" fill="none" id="id15" stroke="none" /><text fill="#e1ed5e" style="font-size:6.75px; font-family:Arial;" text-anchor="middle"><textPath startOffset="22.20632615414155" xlink:href="#id15">March</textPath></text><path d="M 118.03404312379186 89.2402003453031 l 12.319485534643672 -7.350276102358082 a35.34560150775111,35.34560150775111 0 0,0 0.30723798120318946,0.5251693025311213 l -12.444183190317188 7.137127387473066" fill="#ffb110" stroke="none" /><path d="M 118.21658344932153 89.55222093294921 l 12.421513547579046 -7.124125639943625 a35.31946803992355,35.31946803992355 0 0,0 0.29793208937564697,0.5299879428433778 l -12.542303278247127 6.909254187165454" fill="#ffb110" stroke="none" /><path d="M 118.73160827565052 90.50648371742162 l 26.773232577220103 -13.569156244821711 a51.015462412401774,51.015462412401774 0 0,0 0.3902439629097198,0.7867080162165975 l -27.00283655308323 13.106288640106163" fill="#90ff24" stroke="none" /><path d="M 118.89224826269711 90.83032412892265 l 45.031597270645484 -21.856856060061098 a71.05563813973242,71.05563813973242 0 0,0 0.52459973690051,1.1049408355252814 l -45.401155201387745 21.078472808895278" fill="#3dffab" stroke="none" /><path d="M 119.34039704204932 91.81776055985345 l 13.136920050400786 -5.557767253936975 a35.264201528987044,35.264201528987044 0 0,0 0.23169976382261004,0.561079356356861 l -13.230641501109593 5.330813327126811" fill="#ffb010" stroke="none" /><path d="M 119.47837535516314 92.15188598940014 l 13.153083731326348 -5.299564200412275 a35.18058504990444,35.18058504990444 0 0,0 0.22148096488251365,0.5636448975423256 l -13.242358246090562 5.072370297974166" fill="#ffaf10" stroke="none" /><path d="M 119.61058180528143 92.48833698450437 l 13.261148026814913 -5.079567560265404 a35.20070609471225,35.20070609471225 0 0,0 0.2118670348511668,0.5676983197385512 l -13.346619650167707 4.8505461034975195" fill="#ffaf10" stroke="none" /><path d="M 120.08093135843002 93.85539295169968 l 12.955354839044453 -3.9642366798791713 a34.548298471012956,34.548298471012956 0 0,0 0.16911244512594878,0.5701630946648992 l -13.021673181282106 3.7406441984677423" fill="#ffa70f" stroke="none" /><path d="M 120.28053869075195 94.5502522615342 l 13.656624540169783 -3.669782141280355 a35.14109949033765,35.14109949033765 0 0,0 0.15194955884920455,0.5855236343720293 l -13.717770430889292 3.4341620813594753" fill="#ffaf10" stroke="none" /><path d="M 120.37134235888165 94.90015583598534 l 13.967676736940707 -3.4967246358546196 a35.39871788065407,35.39871788065407 0 0,0 0.1428881042428717,0.5923634401706709 l -14.025797641444397 3.2557759640245423" fill="#ffb210" stroke="none" /><path d="M 120.6074358757038 95.95851677861258 l 48.470358275890966 -9.505895876041903 a70.3937008919091,70.3937008919091 0 0,0 0.22296124076815366,1.1910678635923073 l -48.62680524056898 8.670149934987034" fill="#3cffa4" stroke="none" /><path d="M 120.67395015179393 96.31383870115 l 8.360043880303758 -1.4905942010114308 a29.491890528774686,29.491890528774686 0 0,0 0.08480763663247946,0.5005394720899446 l -8.384463378456461 1.3464689406056483" fill="#ff6209" stroke="none" /><path d="M 120.73433829027371 96.67025291283417 l 14.153362811458733 -2.2729019819823617 a35.33470482055638,35.33470482055638 0 0,0 0.09127140445605449,0.6013645174395535 l -14.190390109354087 2.028938352150726" fill="#ffb110" stroke="none" /><path d="M 120.96714384426684 98.82574320788733 l 14.173717361551368 -0.7937935660148525 a35.19592801019325,35.19592801019325 0 0,0 0.028670253958477172,0.6051837474560593 l -14.185281223743342 0.5496987119357933" fill="#ffaf10" stroke="none" /><path d="M 120.98425023603335 99.18683210126433 l 14.325359778355699 -0.5551269441876401 a35.33611170099809,35.33611170099809 0 0,0 0.01832144671190109,0.6079996205474002 l -14.332792919523245 0.3084571762152408" fill="#ffb110" stroke="none" /><line stroke="#e1ed5e" stroke-width="0.3" x1="184.98032266829074" x2="189.97916517819016" y1="98.17113171792111" y2="98.06355123074" /><path d="M 185.9800911702706 98.14961562048488 a86.0,86.0 0 0,1 -9.607161424134198,41.387399972396054" fill="none" id="id16" stroke="none" /><text fill="#e1ed5e" style="font-size:6.75px; font-family:Arial;" text-anchor="middle"><textPath startOffset="21.466115282336823" xlink:href="#id16">April</textPath></text><path d="M 120.99980553446 99.90962569577887 l 14.120409694519182 -0.06076828660938769 a35.12054045444893,35.12054045444893 0 0,0 -0.002601767618052632,0.6045591664117782 l -14.119363629611627 -0.18230035800607527" fill="#ffae10" stroke="none" /><path d="M 120.95626037817324 101.35467743843564 l 13.260203076639385 0.8571805089665581 a34.28787959227012,34.28787959227012 0 0,0 -0.043143036901457286,0.5886524612179784 l -13.243483481073591 -1.0853061066813068" fill="#ffa30f" stroke="none" /><path d="M 120.92983693683757 101.71520430193887 l 14.171118092249168 1.1613259476632187 a35.218623911658526,35.218623911658526 0 0,0 -0.054715324937319405,0.6037790513288293 l -14.149028171034773 -1.4050863875406185" fill="#ffb010" stroke="none" /><path d="M 120.89721153311464 102.0752229133903 l 14.167584697926051 1.406929165929338 a35.237271713739645,35.237271713739645 0 0,0 -0.06513475187187896,0.6030669076506203 l -14.14126764455312 -1.6505923954647497" fill="#ffb010" stroke="none" /><path d="M 120.8583938346157 102.4346265915055 l 9.498559122431233 1.1086876968484654 a30.563044170736887,30.563044170736887 0 0,0 -0.0654900409764322,0.5220200628082595 l -9.478067572207953 -1.27202551394412" fill="#ff710a" stroke="none" /><path d="M 120.13307415673323 105.97154293290107 l 26.91278594795394 7.9824300790367 a49.0716447228711,49.0716447228711 0 0,0 -0.24716505908430847,0.8077497139621297 l -26.7713941163635 -8.444506765550887" fill="#a6ff21" stroke="none" /><path d="M 120.02730092923936 106.31721596034902 l 26.785608702252432 8.448990475520821 a49.086549692079,49.086549692079 0 0,0 -0.2611118081657752,0.803619513353875 l -26.63620464307041 -8.908808888852493" fill="#a6ff21" stroke="none" /><path d="M 119.9155931802556 106.66101706037122 l 26.981745390767557 9.024379276067773 a49.45090518156721,49.45090518156721 0 0,0 -0.2769466603575811,0.8049366308572585 l -26.822407899466747 -9.487488610014331" fill="#a2ff22" stroke="none" /><path d="M 119.79798401119884 107.00284435728193 l 13.320267490166724 4.711578713177851 a35.12899500955617,35.12899500955617 0 0,0 -0.2065513628070786,0.568340640164635 l -13.237191866354419 -4.940167150348618" fill="#ffae10" stroke="none" /><path d="M 119.67450827220406 107.3425965602758 l 12.469124243212876 4.653521577828471 a34.30918188575069,34.30918188575069 0 0,0 -0.2112558800140191,0.5515224402792681 l -12.38717408360535 -4.867467584940883" fill="#ffa40f" stroke="none" /><path d="M 119.12269723197855 108.67885076344098 l 12.81464754262923 5.815937587642689 a35.07267997451688,35.07267997451688 0 0,0 -0.25423581655118127,0.5476013309712238 l -12.712637109238218 -6.035658985892743" fill="#ffae10" stroke="none" /><path d="M 118.97047184881838 109.00673069616215 l 25.42303213503204 12.07025348367244 a49.14287799957528,49.14287799957528 0 0,0 -0.36938301203873153,0.7610384124339512 l -25.211495866378595 -12.506080852071666" fill="#a5ff21" stroke="none" /><path d="M 118.81262510543309 109.33194174019688 l 56.43787531629926 27.995825220590632 a84.0,84.0 0 0,0 -0.6536853208549238,1.2897831531892228 l -55.94761132565807 -28.96316258548255" fill="#4dd2ff" stroke="none" /><path d="M 118.64920377521936 109.65438752849418 l 1.9003347042310634 0.9837721700950883 a23.139878424293904,23.139878424293904 0 0,0 -0.1861630676078747,0.35215036653031684 l -1.8831191283982958 -1.0163375517115394" fill="#ff0801" stroke="none" /><line stroke="#e1ed5e" stroke-width="0.3" x1="174.80103733775053" x2="179.2010983576182" y1="140.37084112569926" y2="142.7455964860345" /><path d="M 175.68104954172406 140.8457921977663 a86.0,86.0 0 0,1 -30.038265399797805,32.042727171017184" fill="none" id="id17" stroke="none" /><text fill="#e1ed5e" style="font-size:6.75px; font-family:Arial;" text-anchor="middle"><textPath startOffset="22.206326154141568" xlink:href="#id17">May</textPath></text><path d="M 118.48025628344425 109.97397251340804 l 1.416377680068152 0.7644326914589471 a22.609497770227225,22.609497770227225 0 0,0 -0.18779189436100577,0.34089683610823945 l -1.4030093762556366 -0.7887000459649917" fill="#ff0000" stroke="none" /><path d="M 117.94076556474637 110.91462005526583 l 9.074531077249382 5.520670705518988 a31.621907517519645,31.621907517519645 0 0,0 -0.28690912110652184,0.4625888570766701 l -8.978157316474897 -5.676055893960932" fill="#ff800b" stroke="none" /><path d="M 117.75023020441432 111.22182372390056 l 11.908763151090568 7.528806066863639 a35.089058186451474,35.089058186451474 0 0,0 -0.3271555686469951,0.5077527077124723 l -11.777402719066524 -7.732680374497565" fill="#ffae10" stroke="none" /><line stroke="#e1ed5e" stroke-width="0.3" x1="143.8653032363475" x2="146.44561519142675" y1="172.8068346515853" y2="177.08958963109032" /><path d="M 144.38136562736335 173.6633856474863 a86.0,86.0 0 0,1 -40.68145358897372,12.25698825130547" fill="none" id="id18" stroke="none" /><text fill="#e1ed5e" style="font-size:6.75px; font-family:Arial;" text-anchor="middle"><textPath startOffset="21.466115282336833" xlink:href="#id18">June</textPath></text><line stroke="#e1ed5e" stroke-width="0.3" x1="102.19456741930631" x2="102.32365962044197" y1="184.97166512339345" y2="189.96999836594603" /><path d="M 102.22038585953345 185.97133177190398 a86.0,86.0 0 0,1 -42.740103519485714,-10.115201625700543" fill="none" id="id19" stroke="none" /><text fill="#e1ed5e" style="font-size:6.75px; font-family:Arial;" text-anchor="middle"><textPath startOffset="22.20632615414155" xlink:href="#id19">July</textPath></text><line stroke="#e1ed5e" stroke-width="0.3" x1="58.666819895761336" x2="56.23545636021788" y1="174.27360380694188" y2="178.64263932499728" /><path d="M 58.180547188652646 175.14741091055294 a86.0,86.0 0 0,1 -31.652253787137756,-30.449443065178592" fill="none" id="id20" stroke="none" /><text fill="#e1ed5e" style="font-size:6.75px; font-family:Arial;" text-anchor="middle"><textPath startOffset="22.20632615414155" xlink:href="#id20">August</textPath></text><line stroke="#e1ed5e" stroke-width="0.3" x1="26.63291911575756" x2="22.317208475507996" y1="142.92168965132927" y2="145.44649492493687" /><path d="M 25.769776987707644 143.4266507060508 a86.0,86.0 0 0,1 -11.730757126820373,-40.83630448921669" fill="none" id="id21" stroke="none" /><text fill="#e1ed5e" style="font-size:6.75px; font-family:Arial;" text-anchor="middle"><textPath startOffset="21.46611528233685" xlink:href="#id21">September</textPath></text><line stroke="#e1ed5e" stroke-width="0.3" x1="15.007084014347285" x2="10.007500721073583" y1="101.09737516637583" y2="101.16192664675087" /><path d="M 14.007167355692545 101.11028546245083 a86.0,86.0 0 0,1 10.666146001902534,-42.60595125391555" fill="none" id="id22" stroke="none" /><text fill="#e1ed5e" style="font-size:6.75px; font-family:Arial;" text-anchor="middle"><textPath startOffset="22.20632615414155" xlink:href="#id22">October</textPath></text><line stroke="#e1ed5e" stroke-width="0.3" x1="26.266209847984243" x2="21.928928074336255" y1="57.711370442889674" y2="55.22380399835377" /><path d="M 25.398753493254645 57.213857153982495 a86.0,86.0 0 0,1 29.58750427330803,-30.492523968695096" fill="none" id="id23" stroke="none" /><text fill="#e1ed5e" style="font-size:6.75px; font-family:Arial;" text-anchor="middle"><textPath startOffset="21.46611528233685" xlink:href="#id23">November</textPath></text><line stroke="#e1ed5e" stroke-width="0.3" x1="56.762969772571076" x2="54.21961505331055" y1="26.818313649435495" y2="22.513508569990535" /><path d="M 56.25429882871897 25.957352633546506 a86.0,86.0 0 0,1 42.265352541879196,-11.944610805530505" fill="none" id="id24" stroke="none" /><text fill="#e1ed5e" style="font-size:6.75px; font-family:Arial;" text-anchor="middle"><textPath startOffset="22.20632615414155" xlink:href="#id24">December</textPath></text></svg>