<?xml version="1.0" encoding="utf-8" ?>
<svg baseProfile="full" height="200mm" version="1.1" viewBox="0,0,200,200" width="200mm" xmlns="http://www.w3.org/2000/svg" xmlns:ev="http://www.w3.org/2001/xml-events" xmlns:xlink="http://www.w3.org/1999/xlink"><defs /><rect fill="#1a1a1a" height="200" width="200" x="0" y="0" /><rect fill="#1a1a1a" height="200" width="180" x="10" y="0" /><text alignment-baseline="middle" fill="#e1ed5e" style="dominant-baseline: central; font-size:9.0px; font-family:Arial;" text-anchor="middle" x="100.0" y="100.0">2025</text><line stroke="#e1ed5e" stroke-width="0.3" x1="100.0" x2="100.0" y1="15.0" y2="10.0" /><path d="M 100.0 14.0 a86.0,86.0 0 0,1 42.46469731375804,11.215312516191453" fill="none" id="id1" stroke="none" /><text fill="#e1ed5e" style="font-size:6.75px; font-family:Arial;" text-anchor="middle"><textPath startOffset="22.20632615414155" xlink:href="#id1">January</textPath></text><line stroke="#e1ed5e" stroke-width="0.3" x1="143.23703022742887" x2="145.7803849466894" y1="26.81831364943548" y2="22.513508569990506" /><path d="M 143.74570117128098 25.957352633546492 a86.0,86.0 0 0,1 28.547481713284135,27.462654790039103" fill="none" id="id2" stroke="none" /><text fill="#e1ed5e" style="font-size:6.75px; font-family:Arial;" text-anchor="middle"><textPath startOffset="19.985693538727396" xlink:href="#id2">February</textPath></text><line stroke="#e1ed5e" stroke-width="0.3" x1="172.23445277983987" x2="176.4835382374775" y1="55.19839476539836" y2="52.563006222186495" /><path d="M 173.08426987136738 54.67131705675599 a86.0,86.0 0 0,1 12.851231095245387,41.99856678651699" fill="none" id="id3" stroke="none" /><text fill="#e1ed5e" style="font-size:6.75px; font-family:Arial;" text-anchor="middle"><textPath startOffset="22.20632615414155" xlink:href="#id3">March</textPath></text><line stroke="#e1ed5e" stroke-width="0.3" x1="184.98032266829074" x2="189.97916517819016" y1="98.17113171792111" y2="98.06355123074" /><path d="M 185.9800911702706 98.14961562048488 a86.0,86.0 0 0,1 -9.607161424134198,41.387399972396054" fill="none" id="id4" stroke="none" /><text fill="#e1ed5e" style="font-size:6.75px; font-family:Arial;" text-anchor="middle"><textPath startOffset="21.466115282336823" xlink:href="#id4">April</textPath></text><path d="M 119.54520255179757 107.68017299344265 l 0.6258803697119825 0.2459360295627011 a21.67246618340841,21.67246618340841 0 0,0 -0.13942350114159732,0.34603769579533744 l -0.6215542543129927 -0.2566730932008521" fill="#ff0000" stroke="none" /><path d="M 119.12269723197855 108.67885076344098 l 6.595552278433322 2.993396445731071 a28.243047158403872,28.243047158403872 0 0,0 -0.2047289845380353,0.4409680191494417 l -6.543048677055456 -3.1064845321593433" fill="#ff5d08" stroke="none" /><path d="M 118.97047184881838 109.00673069616215 l 0.972336640228921 0.46164240585815935 a22.076360651834772,22.076360651834772 0 0,0 -0.16593722069958008,0.34187982362239516 l -0.9642461629146266 -0.47831118544582996" fill="#ff0600" stroke="none" /><path d="M 118.81262510543309 109.33194174019688 l 6.82446668461123 3.385254591094475 a28.61795866199698,28.61795866199698 0 0,0 -0.22270404154976717,0.43941620191558683 l -6.765183973275194 -3.502225004712756" fill="#ff6209" stroke="none" /><line stroke="#e1ed5e" stroke-width="0.3" x1="174.80103733775053" x2="179.2010983576182" y1="140.37084112569926" y2="142.7455964860345" /><path d="M 175.68104954172406 140.8457921977663 a86.0,86.0 0 0,1 -30.038265399797805,32.042727171017184" fill="none" id="id5" stroke="none" /><text fill="#e1ed5e" style="font-size:6.75px; font-family:Arial;" text-anchor="middle"><textPath startOffset="22.206326154141568" xlink:href="#id5">May</textPath></text><path d="M 118.48025628344425 109.97397251340804 l 12.66864490403433 6.83738981304948 a35.39598774520553,35.39598774520553 0 0,0 -0.29399501302519593,0.5336863452648606 l -12.549073481557626 -7.054446676712145" fill="#ffbb11" stroke="none" /><path d="M 118.30583269289576 110.29060199501025 l 11.198502412105864 6.29522476231668 a33.8466459078635,33.8466459078635 0 0,0 -0.2898691287364991,0.5054112590936601 l -11.088481287216984 -6.487055867268656" fill="#ffa80f" stroke="none" /><path d="M 118.12598468904814 110.60418214915192 l 7.1207508592069075 4.165828254030454 a29.249801078873013,29.249801078873013 0 0,0 -0.2579820258014242,0.4323927143415862 l -7.047987957707256 -4.287783062258144" fill="#ff6a09" stroke="none" /><path d="M 117.55443506779139 111.5257021239791 l 1.1893624667100324 0.780898813080719 a22.422809204879364,22.422809204879364 0 0,0 -0.21461500086422147,0.32082030694630914 l -1.17574436043509 -0.801256034232835" fill="#ff0b01" stroke="none" /><path d="M 117.35343817320211 111.8261652097733 l 0.9607051611067361 0.654709334238731 a22.162582779382372,22.162582779382372 0 0,0 -0.21755117662314022,0.3133986956590993 l -0.9492930773214597 -0.6711492920848499" fill="#ff0701" stroke="none" /><path d="M 116.71984013943494 112.70617746262583 l 1.768760953640382 1.3441630050583442 a23.221551146224257,23.221551146224257 0 0,0 -0.24459280034127404,0.3161691658823874 l -1.7453613360810396 -1.3744101650539844" fill="#ff1602" stroke="none" /><path d="M 116.498646956653 112.99209946851258 l 25.40093287930063 20.002333974896633 a53.33111126426124,53.33111126426124 0 0,0 -0.5741528089075751,0.7163439091423593 l -25.0528621583382 -20.436605717617244" fill="#72ff27" stroke="none" /><path d="M 115.80600337817218 113.82643327865902 l 9.451796971581476 8.268038229795394 a33.55774351391821,33.55774351391821 0 0,0 -0.38406222282576746,0.4314979787604199 l -9.30807589910737 -8.42951037829668" fill="#ffa40f" stroke="none" /><path d="M 115.07121518719521 114.62390073753431 l 24.8709351472344 24.13276450009316 a55.65477943249525,55.65477943249525 0 0,0 -0.6730501427308823,0.6817962411627997 l -24.45184437944798 -24.557301235236626" fill="#5aff2a" stroke="none" /><path d="M 114.0293411484842 115.62618273729858 l 8.646327127302765 9.630465626840406 a33.942366127647844,33.942366127647844 0 0,0 -0.43811132854016,0.3865823091059759 l -8.479273445856016 -9.777871077718672" fill="#ffa90f" stroke="none" /><path d="M 113.75828350139079 115.86535959552629 l 3.7061602941267777 4.273757389796401 a26.656909611492942,26.656909611492942 0 0,0 -0.34924933913746853,0.2976378636155522 l -3.632045478412262 -4.3369196436349" fill="#ff4706" stroke="none" /><path d="M 113.48314897796784 116.09983520530334 l 18.974221035621415 22.656564302721712 a50.552342883635845,50.552342883635845 0 0,0 -0.6719366176606654,0.5529580911227017 l -18.58141428941606 -22.979817512701594" fill="#90ff24" stroke="none" /><path d="M 112.04921762599082 117.19931262002967 l 7.59299672750243 10.838406981502057 a34.23346761814662,34.23346761814662 0 0,0 -0.4855334593119254,0.3339543406451965 l -7.405306383567622 -10.967502111512347" fill="#ffad10" stroke="none" /><path d="M 111.7513745106137 117.40417183066458 l 3.118415300460999 4.618475539144599 a26.572686093063762,26.572686093063762 0 0,0 -0.3812867924895621,0.2526960951287636 l -3.0384538092314726 -4.671469655364682" fill="#ff4606" stroke="none" /><path d="M 111.45004920935366 117.60387380957326 l 1.7772827604667598 2.7324827052820106 a24.259631228424105,24.259631228424105 0 0,0 -0.3520167195681621,0.22467372552303932 l -1.7299842388516673 -2.7626708596288587" fill="#ff2503" stroke="none" /><path d="M 111.1453310114006 117.79835938074945 l 2.2008150877880532 3.5145567074642625 a25.146769332940714,25.146769332940714 0 0,0 -0.36884419090714676,0.22657422760946835 l -2.139991696948598 -3.5519194019021088" fill="#ff3204" stroke="none" /><line stroke="#e1ed5e" stroke-width="0.3" x1="143.8653032363475" x2="146.44561519142675" y1="172.8068346515853" y2="177.08958963109032" /><path d="M 144.38136562736335 173.6633856474863 a86.0,86.0 0 0,1 -40.68145358897372,12.25698825130547" fill="none" id="id6" stroke="none" /><text fill="#e1ed5e" style="font-size:6.75px; font-family:Arial;" text-anchor="middle"><textPath startOffset="21.466115282336833" xlink:href="#id6">June</textPath></text><path d="M 110.21172684928248 118.3499491758327 l 6.434604944941328 11.562654921046134 a34.232502772365315,34.232502772365315 0 0,0 -0.5173626415519996,0.2821073627817805 l -6.23461949152068 -11.671702935587684" fill="#ffac10" stroke="none" /><path d="M 108.92500713936063 119.00905698771935 l 18.54893455511968 39.50671954812644 a64.64451698191228,64.64451698191228 0 0,0 -1.011323463176892,0.46424899966099387 l -17.866143096175367 -39.82015561812151" fill="#35ff66" stroke="none" /><path d="M 105.88484417918355 120.15858648285463 l 2.1341641780482488 7.310598520854077 a28.615740769746445,28.615740769746445 0 0,0 -0.4740249673996717,0.1339641906945671 l -2.0080080425439712 -7.346251504887163" fill="#ff6209" stroke="none" /><path d="M 105.53697534728816 120.25689768951611 l 1.9924667267475344 7.2893939564418595 a28.556797463833945,28.556797463833945 0 0,0 -0.4752796969669693,0.12552568771892128 l -1.8666965869690677 -7.322610993464365" fill="#ff6109" stroke="none" /><path d="M 105.18746579009965 120.34920634021253 l 1.5634853763803018 6.133184838459707 a27.32933193827493,27.32933193827493 0 0,0 -0.45685105748066024,0.11228287479774066 l -1.4576810341564304 -6.159188971571478" fill="#ff5007" stroke="none" /><path d="M 104.83641907484287 120.43548508189849 l 0.5154494593697868 2.1779460328851163 a23.23811015531511,23.23811015531511 0 0,0 -0.39004598075893737,0.08877319534004578 l -0.4778833292179874 -2.1864959618028466" fill="#ff1702" stroke="none" /><path d="M 104.13013068566511 120.58985236759428 l 0.3707546000226154 1.848314995350514 a22.88513323016584,22.88513323016584 0 0,0 -0.3869030210261969,0.07415088481662167 l -0.33888396442471413 -1.8544230785156037" fill="#ff1201" stroke="none" /><path d="M 101.26447882468166 120.96189622390904 l 0.11465085458266049 1.9006244065409743 a22.904079292780573,22.904079292780573 0 0,0 -0.3937450431760733,0.020352121216054078 l -0.08191774299310761 -1.9023163345192304" fill="#ff1202" stroke="none" /><line stroke="#e1ed5e" stroke-width="0.3" x1="102.19456741930631" x2="102.32365962044197" y1="184.97166512339345" y2="189.96999836594603" /><path d="M 102.22038585953345 185.97133177190398 a86.0,86.0 0 0,1 -42.740103519485714,-10.115201625700543" fill="none" id="id7" stroke="none" /><text fill="#e1ed5e" style="font-size:6.75px; font-family:Arial;" text-anchor="middle"><textPath startOffset="22.20632615414155" xlink:href="#id7">July</textPath></text><path d="M 98.37488393609728 120.93702456842531 l -0.4854367525489226 6.254077133497464 a27.272888460068543,27.272888460068543 0 0,0 -0.46773741669022956,-0.04035835244844009 l 0.5930184869806938 -6.244794528770361" fill="#ff4f07" stroke="none" /><path d="M 98.01472825383883 120.90594882070398 l -0.6839617848356785 7.2024749743913254 a28.2348772954245,28.2348772954245 0 0,0 -0.4834448340131179,-0.05011103373212254 l 0.8078392154543896 -7.189634572203442" fill="#ff5d08" stroke="none" /><path d="M 96.58105272829116 120.7198165907248 l -7.34713324722539 44.525768095288214 a66.1278671269524,66.1278671269524 0 0,0 -1.1215003757916053,-0.1949872158035676 l 8.112482594489046 -44.39270230096364" fill="#37ff77" stroke="none" /><path d="M 95.51606077576429 120.51570834832081 l -0.3004725194129294 1.3747747832178847 a22.407227572034508,22.407227572034508 0 0,0 -0.376099820338612,-0.08559909463317751 l 0.32409248914440403 -1.3693989550070205" fill="#ff0b01" stroke="none" /><path d="M 95.16358092515715 120.4354850818985 l -2.257492220819617 9.538658227742639 a30.802156492973545,30.802156492973545 0 0,0 -0.5149045647468549,-0.12655101444895664 l 2.4213500703096824 -9.498385954979652" fill="#ff7f0b" stroke="none" /><path d="M 93.08242187328487 119.8279376855182 l -2.0729840417365137 5.941819181468842 a27.293049977758425,27.293049977758425 0 0,0 -0.44225195419935553,-0.15857581620503003 l 2.174955556565596 -5.905255824223855" fill="#ff5007" stroke="none" /><path d="M 92.7421414339146 119.70592522655815 l -1.089627962333284 2.9584659104328384 a24.152746364598933,24.152746364598933 0 0,0 -0.38889346649022455,-0.14704623273545842 l 1.1403916495837916 -2.9392714275907466" fill="#ff2403" stroke="none" /><path d="M 91.40352486487194 119.15986991738527 l -5.424792932167086 12.090807601402334 a34.25201897112355,34.25201897112355 0 0,0 -0.5358516400759805,-0.24598320609561933 l 5.632112568010486 -11.99563732497264" fill="#ffad10" stroke="none" /><path d="M 90.42595943632237 118.69057910512821 l -6.348040333062608 12.39273525305341 a34.923990201176615,34.923990201176615 0 0,0 -0.5326891324529711,-0.27867777765619917 l 6.560420368042074 -12.281628056452494" fill="#ffb510" stroke="none" /><line stroke="#e1ed5e" stroke-width="0.3" x1="58.666819895761336" x2="56.23545636021788" y1="174.27360380694188" y2="178.64263932499728" /><path d="M 58.180547188652646 175.14741091055294 a86.0,86.0 0 0,1 -31.652253787137756,-30.449443065178592" fill="none" id="id8" stroke="none" /><text fill="#e1ed5e" style="font-size:6.75px; font-family:Arial;" text-anchor="middle"><textPath startOffset="22.20632615414155" xlink:href="#id8">August</textPath></text><path d="M 89.7882731507175 118.34994917583269 l -3.656859962241884 6.571189715575961 a28.520183446003095,28.520183446003095 0 0,0 -0.4269216587564022,-0.24241725981275541 l 3.7694303879194933 -6.507269289968572" fill="#ff6108" stroke="none" /><path d="M 86.51685102203217 116.09983520530335 l -3.5051438235233525 4.185390076296423 a26.459260326669217,26.459260326669217 0 0,0 -0.3466598085762728,-0.2954310094926396 l 3.5766691086766818 -4.124434676580832" fill="#ff4406" stroke="none" /><path d="M 85.97065885151581 115.62618273729859 l -0.963004615513072 1.072615309557506 a22.44148586250321,22.44148586250321 0 0,0 -0.28522108034930094,-0.2605426943725417 l 0.9813252453292276 -1.0558798485983882" fill="#ff0b01" stroke="none" /><path d="M 84.43433777217949 114.09645910891817 l -2.369322837968133 2.1456885041196383 a24.19650901253673,24.19650901253673 0 0,0 -0.27692461002702035,-0.31112773502299496 l 2.405906297643492 -2.104586599355779" fill="#ff2403" stroke="none" /><path d="M 83.95833913139862 113.55231037782056 l -5.044284667779637 4.261510825580203 a27.603429588186277,27.603429588186277 0 0,0 -0.3035115385033012,-0.36559920023842574 l 5.116892206176475 -4.1740503682280155" fill="#ff5407" stroke="none" /><path d="M 83.72743513129214 113.27417163493432 l -1.0576292567294945 0.8627498119213292 a22.364887131839286,22.364887131839286 0 0,0 -0.24077620854398088,-0.30040534119312434 l 1.0723233773283363 -0.8444166371499452" fill="#ff0a01" stroke="none" /><path d="M 83.28015986056508 112.70617746262583 l -10.529895112664544 8.002152822549295 a34.225473181672946,34.225473181672946 0 0,0 -0.35242252226506166,-0.47212756063953515 l 10.66607890162469 -7.819712382400453" fill="#ffac10" stroke="none" /><path d="M 82.6465618267979 111.8261652097733 l -2.7038868944944374 1.842667303371138 a24.2720677146312,24.2720677146312 0 0,0 -0.2323147731381591,-0.3472790649592076 l 2.7352047730433267 -1.7958513242061096" fill="#ff2503" stroke="none" /><path d="M 82.24976979558568 111.22182372390057 l -2.783140239976224 1.759521359004145 a24.29268659428235,24.29268659428235 0 0,0 -0.22041027588928594,-0.3553715448932097 l 2.813015155533466 -1.711353482745671" fill="#ff2603" stroke="none" /><line stroke="#e1ed5e" stroke-width="0.3" x1="26.63291911575756" x2="22.317208475507996" y1="142.92168965132927" y2="145.44649492493687" /><path d="M 25.769776987707644 143.4266507060508 a86.0,86.0 0 0,1 -11.730757126820373,-40.83630448921669" fill="none" id="id9" stroke="none" /><text fill="#e1ed5e" style="font-size:6.75px; font-family:Arial;" text-anchor="middle"><textPath startOffset="21.46611528233685" xlink:href="#id9">September</textPath></text><path d="M 81.87401531095188 110.60418214915194 l -5.412171694405521 3.166264092931566 a27.270313449574278,27.270313449574278 0 0,0 -0.23354816372404352,-0.40721090928618037 l 5.465871854281942 -3.0726333377870785" fill="#ff4f07" stroke="none" /><path d="M 81.35079622478065 109.6543875284942 l -5.719179070123017 2.9607253882436195 a27.440101246154715,27.440101246154715 0 0,0 -0.21353799270695828,-0.4213307179654521 l 5.769295732616242 -2.8618404585754824" fill="#ff5207" stroke="none" /><path d="M 81.02952815118164 109.00673069616217 l -24.345408027099985 11.558623082004798 a47.94996585448372,47.94996585448372 0 0,0 -0.3475810440340958,-0.7486586465881266 l 24.540763687973907 -11.137844368137845" fill="#acff20" stroke="none" /><path d="M 80.87730276802145 108.67885076344099 l -11.461588460776388 5.2018506885476405 a33.58678913107493,33.58678913107493 0 0,0 -0.23440206582902764,-0.5285147781063215 l 11.549431611336695 -5.003787573948623" fill="#ffa40f" stroke="none" /><path d="M 80.45479744820244 107.68017299344265 l -0.6472517238620987 0.25433377814279595 a21.69542825995702,21.69542825995702 0 0,0 -0.1335877609848135,-0.3487554899058762 l 0.6515337644404213 -0.243154721403762" fill="#ff0000" stroke="none" /><path d="M 80.20201598880116 107.00284435728193 l -9.55919315440786 3.3812302203925046 a31.139570580974997,31.139570580974997 0 0,0 -0.17439519146729324,-0.5068740589835589 l 9.615979176818382 -3.216183458319649" fill="#ff840c" stroke="none" /><path d="M 80.0844068197444 106.66101706037122 l -18.27361470813775 6.111837002486605 a40.26861557160848,40.26861557160848 0 0,0 -0.21420554286649496,-0.6592568728519024 l 18.376112502020494 -5.7963812296569" fill="#fff817" stroke="none" /><path d="M 79.4281124754447 104.21870165774334 l -61.715662573665874 12.656104973230022 a84.0,84.0 0 0,0 -0.2782802680973342,-1.4189450917281805 l 61.92437277473888 -11.591896154433886" fill="#4dd2ff" stroke="none" /><line stroke="#e1ed5e" stroke-width="0.3" x1="15.007084014347285" x2="10.007500721073583" y1="101.09737516637583" y2="101.16192664675087" /><path d="M 14.007167355692545 101.11028546245083 a86.0,86.0 0 0,1 10.666146001902534,-42.60595125391555" fill="none" id="id10" stroke="none" /><text fill="#e1ed5e" style="font-size:6.75px; font-family:Arial;" text-anchor="middle"><textPath startOffset="22.20632615414155" xlink:href="#id10">October</textPath></text><path d="M 79.00175016825051 100.2711162175752 l -6.398436697034555 0.08261259722091142 a27.398969995802297,27.398969995802297 0 0,0 -0.0020297453279664404,-0.4716413314506864 l 6.398910739652024 0.027538212433450348" fill="#ff5107" stroke="none" /><path d="M 79.00486145842228 99.54816195383935 l -13.471265304196276 -0.28991617189406615 a34.4743845975528,34.4743845975528 0 0,0 0.01787464918817898,-0.5931725859165617 l 13.464278960552452 0.5217589052356223" fill="#ffb010" stroke="none" /><path d="M 79.05617556472873 98.46500227214037 l -13.624119846158708 -0.998527898883721 a34.66066248566828,34.66066248566828 0 0,0 0.04873209290702616,-0.5946549673307016 l 13.604913269432185 1.2328967834222009" fill="#ffb210" stroke="none" /><path d="M 79.46518482838121 95.60439243477599 l -6.152073986869171 -1.316890497065437 a27.291439813045468,27.291439813045468 0 0,0 0.1022852142896543,-0.4585245595455153 l 6.128494385577479 1.4225932261609116" fill="#ff5007" stroke="none" /><path d="M 79.62865764111835 94.90015583598534 l -7.204209547902182 -1.8035309294769792 a28.426530752892972,28.426530752892972 0 0,0 0.12291586974115218,-0.47364498665154275 l 7.172097346290722 1.9272723416773858" fill="#ff5f08" stroke="none" /><path d="M 79.81627453868168 94.20196356495316 l -23.22065013380529 -6.670432362910506 a45.15974462912958,45.15974462912958 0 0,0 0.22105502075313263,-0.7452876376422438 l 23.10238921594045 7.069149387299289" fill="#ccff1d" stroke="none" /><path d="M 79.91906864156998 93.8553929516997 l -3.2866809046263703 -1.0056985052938374 a24.437106465093258,24.437106465093258 0 0,0 0.1265429200310221,-0.40117563746956625 l 3.2688825008271443 1.062124309189818" fill="#ff2803" stroke="none" /><path d="M 80.65960295795068 91.81776055985345 l -30.740503009299687 -13.005221949982442 a54.378351116151144,54.378351116151144 0 0,0 0.37212734470607384,-0.8589212181522661 l 30.512084954750932 13.532442312721306" fill="#67ff28" stroke="none" /><path d="M 81.10775173730289 90.83032412892265 l -10.90622980682192 -5.293525202159407 a33.1230053066518,33.1230053066518 0 0,0 0.2533751973049802,-0.5107889366027238 l 10.813494596563526 5.480473727261092" fill="#ff9e0e" stroke="none" /><path d="M 81.43458229118936 90.18545643968196 l -6.497309906750874 -3.4347803052354595 a28.34933682515616,28.34933682515616 0 0,0 0.23177864406699214,-0.42945062638072373 l 6.43722316346541 3.546111914948656" fill="#ff5e08" stroke="none" /><line stroke="#e1ed5e" stroke-width="0.3" x1="26.266209847984243" x2="21.928928074336255" y1="57.711370442889674" y2="55.22380399835377" /><path d="M 25.398753493254645 57.213857153982495 a86.0,86.0 0 0,1 29.58750427330803,-30.492523968695096" fill="none" id="id11" stroke="none" /><text fill="#e1ed5e" style="font-size:6.75px; font-family:Arial;" text-anchor="middle"><textPath startOffset="21.46611528233685" xlink:href="#id11">November</textPath></text><path d="M 82.15384107792192 88.93136811851018 l -8.155040978863735 -5.057959360758411 a30.596230836220563,30.596230836220563 0 0,0 0.281445116973625,-0.4451785858612404 l 8.066768265644146 5.197585594333868" fill="#ff7d0b" stroke="none" /><path d="M 82.34701348167596 88.62581576622439 l -11.472454912461284 -7.391939922039161 a34.64763706762066,34.64763706762066 0 0,0 0.32734322719588477,-0.49856619274727426 l 11.343515049907479 7.588324178764103" fill="#ffb210" stroke="none" /><path d="M 82.54541684631803 88.32363383020206 l -5.9652743675886155 -3.9905122457525755 a28.17695522238442,28.17695522238442 0 0,0 0.2731494626297564,-0.4008131315357931 l 5.895700439290119 4.092603400558785" fill="#ff5c08" stroke="none" /><path d="M 83.6137871275137 86.86637796730984 l -3.777021844670659 -3.027299700250497 a25.84049971493193,25.84049971493193 0 0,0 0.2811711023981664,-0.34468252549477485 l 3.7243522501961 3.091866395353354" fill="#ff3b05" stroke="none" /><path d="M 83.84228863543731 86.58626213691792 l -3.5359212763404986 -2.9354355969837407 a25.5955980477536,25.5955980477536 0 0,0 0.2843419698090761,-0.3365712061798871 l 3.484868693044298 2.995865752792744" fill="#ff3805" stroke="none" /><path d="M 84.07557802195018 86.31012108654704 l -6.933202487696881 -5.960323248771688 a30.143016458765373,30.143016458765373 0 0,0 0.3416325320711017,-0.3905450413118432 l 6.829578092047935 6.078783846286475" fill="#ff770a" stroke="none" /><path d="M 84.31358615837235 86.03803664274999 l -6.597719146607143 -5.872413790454831 a29.832618052640484,29.832618052640484 0 0,0 0.3447178327402759,-0.38064604074556874 l 6.495657673250823 5.985112618469956" fill="#ff720a" stroke="none" /><path d="M 84.5562425177563 85.77008943001954 l -3.6725604923531154 -3.3839049485925865 a25.99384754183609,25.99384754183609 0 0,0 0.30602516857427703,-0.32644631284721404 l 3.6137680018083826 3.446620678317851" fill="#ff3e05" stroke="none" /><path d="M 85.05521093208273 85.24692304244772 l -2.604416850115924 -2.571007328687634 a24.659653783260552,24.659653783260552 0 0,0 0.30080573712095365,-0.29951398169000787 l 2.559775312827657 2.615457161027751" fill="#ff2b04" stroke="none" /><path d="M 85.57189188830299 84.74124197986013 l -3.6203592806091165 -3.82878931742941 a26.269404990884087,26.269404990884087 0 0,0 0.33123482566600787,-0.30784667118115905 l 3.5539165711482528 3.8905405746852164" fill="#ff4106" stroke="none" /><path d="M 85.83668400450813 84.49514656593479 l -4.65017531707143 -5.09063603162208 a27.89483180983767,27.89483180983767 0 0,0 0.35730491712879603,-0.3207918824900024 l 4.561859412346663 5.169926922881362" fill="#ff5808" stroke="none" /><path d="M 86.10567301691215 84.25364557470407 l -3.1511327501478665 -3.5711591634040154 a25.762647937798775,25.762647937798775 0 0,0 0.33504471024251226,-0.290547471136906 l 3.0891942412585807 3.624871627960602" fill="#ff3a05" stroke="none" /><path d="M 86.65592168130627 83.78471172551755 l -4.804580180198734 -5.838368960308514 a28.561120474152784,28.561120474152784 0 0,0 0.38230637611781954,-0.30913183519425835 l 4.703370405516414 5.920206892766906" fill="#ff6109" stroke="none" /><path d="M 87.51073957382395 83.11751280151077 l -5.570043869096812 -7.529364518491535 a30.36572040774132,30.36572040774132 0 0,0 0.4228855788350239,-0.3072443575038095 l 5.439612973908006 7.624128110812013" fill="#ff7a0b" stroke="none" /><path d="M 87.80319425747018 82.90503203632743 l -2.6919838501004807 -3.7730680185979946 a25.634956237352064,25.634956237352064 0 0,0 0.3614148704769317,-0.2531942132718966 l 2.6266378400398884 3.8188470746338337" fill="#ff3905" stroke="none" /><path d="M 88.39885842347998 82.49532879139004 l -3.981413495579736 -6.00745484622829 a28.207022072413558,28.207022072413558 0 0,0 0.40703132344627335,-0.26474449508230735 l 3.877415146349175 6.075098265470133" fill="#ff5c08" stroke="none" /><path d="M 88.70189139769569 82.29822771554957 l -7.139160191064917 -11.185570297905413 a34.269686926339666,34.269686926339666 0 0,0 0.4999797965918969,-0.31308730275761254 l 6.945561242100778 11.306801941985956" fill="#ffad10" stroke="none" /><line stroke="#e1ed5e" stroke-width="0.3" x1="56.762969772571076" x2="54.21961505331055" y1="26.818313649435495" y2="22.513508569990535" /><path d="M 56.25429882871897 25.957352633546506 a86.0,86.0 0 0,1 42.265352541879196,-11.944610805530505" fill="none" id="id12" stroke="none" /><text fill="#e1ed5e" style="font-size:6.75px; font-family:Arial;" text-anchor="middle"><textPath startOffset="22.20632615414155" xlink:href="#id12">December</textPath></text><path d="M 89.63071344664047 81.73862282372117 l -2.357792095956898 -4.152313714733644 a25.77502803691475,25.77502803691475 0 0,0 0.3877004981120958,-0.2157549074449598 l 2.2859675087727567 4.192284019738789" fill="#ff3b05" stroke="none" /><path d="M 89.94658935756843 81.56283822128135 l -3.332471746909724 -6.111490210244033 a27.96101145910996,27.96101145910996 0 0,0 0.4245479527531442,-0.2267788133340374 l 3.2267787476282743 6.167947750079819" fill="#ff5908" stroke="none" /><path d="M 90.58718382345135 81.22770947309562 l -3.05578670881139 -6.0942564701283555 a27.817462455595166,27.817462455595166 0 0,0 0.4298840878904449,-0.2109422549617448 l 2.950431353910519 6.14595388522493" fill="#ff5708" stroke="none" /><path d="M 90.91171255644093 81.06846463323043 l -5.82393103088503 -12.131653732295387 a34.45716147383326,34.45716147383326 0 0,0 0.5369111433812351,-0.25208698100992544 l 5.614241676204186 12.230105695945321" fill="#ffaf10" stroke="none" /><path d="M 91.90106846888425 80.62456947434976 l -3.6628515567357716 -8.762801067108986 a30.497534631071794,30.497534631071794 0 0,0 0.48609603708603377,-0.19829077867201023 l 3.5114716500613574 8.824552731964573" fill="#ff7b0b" stroke="none" /><path d="M 92.23578459929587 80.48803036053334 l -1.6719547439677103 -4.201729153457235 a25.522163259424474,25.522163259424474 0 0,0 0.40959041352632286,-0.15891471707934543 l 1.5993811654417112 4.229886574427131" fill="#ff3705" stroke="none" /><path d="M 93.94186890950719 79.89281104454417 l -1.3256842386164285 -4.4000011031391795 a25.595372499389143,25.595372499389143 0 0,0 0.422944982776236,-0.1234692383874524 l 1.2497490381167713 4.4221686704453305" fill="#ff3805" stroke="none" /><path d="M 94.63758080256005 79.69619591428918 l -3.430815850148431 -12.990146855512638 a34.43556521793611,34.43556521793611 0 0,0 0.5744034480452866,-0.14642822853301915 l 3.206703513418145 13.04727808021452" fill="#ffaf10" stroke="none" /><path d="M 94.98787191387505 79.60689891045804 l -1.0989226205727718 -4.471242495371101 a25.60430672071474,25.60430672071474 0 0,0 0.4289042198139734,-0.10150777149040345 l 1.0217947137962642 4.489496179002375" fill="#ff3805" stroke="none" /><path d="M 96.40284397218896 79.31037775812273 l -1.074353613827533 -6.179317842327142 a27.27201759277243,27.27201759277243 0 0,0 0.4631967697623056,-0.07643143583385215 l 0.9678276379263416 6.196895541100622" fill="#ff4f07" stroke="none" /><path d="M 98.91598698831166 79.02799685794201 l -0.27700904278150923 -5.359192604657172 a26.366346930975936,26.366346930975936 0 0,0 0.45344990050121753,-0.01952650657278844 l 0.18471830989096757 5.363166837754153" fill="#ff4306" stroke="none" /><path d="M 99.27714615592234 79.0124445844662 l -0.2307020686334625 -6.69827308741942 a27.702244832749624,27.702244832749624 0 0,0 0.47670730608885753,-0.012311943292728372 l 0.11536812734972594 6.701251822854507" fill="#ff5507" stroke="none" /></svg>