<?xml version="1.0" encoding="utf-8" ?>
<svg baseProfile="full" height="200mm" version="1.1" viewBox="0,0,200,200" width="200mm" xmlns="http://www.w3.org/2000/svg" xmlns:ev="http://www.w3.org/2001/xml-events" xmlns:xlink="http://www.w3.org/1999/xlink"><defs /><rect fill="#1a1a1a" height="200" width="200" x="0" y="0" /><rect fill="#1a1a1a" height="200" width="180" x="10" y="0" /><text alignment-baseline="middle" fill="#e1ed5e" style="dominant-baseline: central; font-size:9.0px; font-family:Arial;" text-anchor="middle" x="100.0" y="100.0">2026</text><line stroke="#e1ed5e" stroke-width="0.3" x1="100.0" x2="100.0" y1="15.0" y2="10.0" /><path d="M 100.0 14.0 a86.0,86.0 0 0,1 42.46469731375804,11.215312516191453" fill="none" id="id13" stroke="none" /><text fill="#e1ed5e" style="font-size:6.75px; font-family:Arial;" text-anchor="middle"><textPath startOffset="22.20632615414155" xlink:href="#id13">January</textPath></text><path d="M 100.0 79.0 l 0.0 -24.134205967079666 a45.134205967079666,45.134205967079666 0 0,0 0.7769111621221413,0.006687119651992848 l -0.41543068284961293 24.13063022403623" fill="#d2ff1c" stroke="none" /><path d="M 101.08401301168833 79.027996857942 l 1.2983313313622005 -25.118341262668412 a46.15187333050696,46.15187333050696 0 0,0 0.7930165435616137,0.047836923541879676 l -1.730509923763426 25.09227106974623" fill="#c6ff1e" stroke="none" /><path d="M 101.44485096284872 79.0497635885617 l 0.5999593079044101 -8.699367381849722 a29.720031193495355,29.720031193495355 0 0,0 0.5100662292663322,0.03959095620898516 l -0.7496157265330834 8.687751163452273" fill="#ff6809" stroke="none" /><path d="M 102.16513564639614 79.11191278185805 l 2.2051344762827223 -21.273974840788316 a42.387955105268595,42.387955105268595 0 0,0 0.7251030878070194,0.08147378057881643 l -2.571004267599467 21.2328651067389" fill="#f3ff19" stroke="none" /><path d="M 102.88285421437855 79.19881850522331 l 1.7467431393132835 -12.60359295464546 a33.72405858840357,33.72405858840357 0 0,0 0.5743223550978341,0.08464018590892931 l -1.9634344748397734 12.571658284575562" fill="#ff9e0e" stroke="none" /><path d="M 103.95276090670814 79.375362276772 l 1.632900259789992 -8.5201146973447 a29.675178252596968,29.675178252596968 0 0,0 0.5008514275129058,0.10046608459349078 l -1.779318096770023 8.490744656674" fill="#ff6709" stroke="none" /><path d="M 104.66035177308747 79.52364482259891 l 2.857476969026691 -12.554999317201931 a33.87607014905786,33.87607014905786 0 0,0 0.567466621773071,0.13430101526246477 l -3.0731672777622854 12.503952389798597" fill="#ffa00e" stroke="none" /><path d="M 105.01212808612495 79.60689891045804 l 6.050900688486449 -24.619608139042064 a46.352287945310024,46.352287945310024 0 0,0 0.7731806883978269,0.19710097305876617 l -6.4737902655693 24.51180416981443" fill="#c4ff1e" stroke="none" /><path d="M 105.36241919743992 79.69619591428918 l 3.24087110185611 -12.270956353159184 a33.69171443580353,33.69171443580353 0 0,0 0.5594462828303174,0.15291780230329208 l -3.4516152739101384 12.213352010029599" fill="#ff9d0e" stroke="none" /><path d="M 105.71112130821622 79.79150937346287 l 1.619223903388833 -5.729535288774724 a26.953944967382604,26.953944967382604 0 0,0 0.4453944083155316,0.13002284130615047 l -1.7176085294277919 5.700814118549871" fill="#ff4106" stroke="none" /><path d="M 106.0581310904928 79.89281104454417 l 2.0628142326310086 -6.84656619936915 a28.150571395398355,28.150571395398355 0 0,0 0.4627613815353695,0.14378221385001916 l -2.1803609868770963 6.81004385063661" fill="#ff5207" stroke="none" /><path d="M 106.40334571778207 80.00007090966166 l 2.2060686614932057 -6.890338073697515 a28.234880628529265,28.234880628529265 0 0,0 0.46159616817661453,0.15218099925372683 l -2.324347651912238 6.8513433501845515" fill="#ff5307" stroke="none" /><path d="M 106.74666289553966 80.11325718540242 l 4.133135113193378 -12.183000141951625 a33.865002849696744,33.865002849696744 0 0,0 0.5504159478595247,0.19202931650774527 l -4.342233065116176 12.110049972271673" fill="#ffa00e" stroke="none" /><path d="M 107.08798089147638 80.2323363322302 l 8.621855843681155 -24.045486171504667 a46.544506325494744,46.544506325494744 0 0,0 0.7518437706570443,0.2769104058035792 l -9.034481940110776 23.89351249789476" fill="#c1ff1e" stroke="none" /><path d="M 107.4271985657038 80.35727306442388 l 3.050873729563098 -8.06865186847901 a29.626179541862555,29.626179541862555 0 0,0 0.47545339344524445,0.18446853004510222 l -3.1893102880080093 8.014940634543363" fill="#ff6609" stroke="none" /><path d="M 107.76421540070413 80.48803036053334 l 4.714941303073106 -11.848948903334977 a33.752578625723814,33.752578625723814 0 0,0 0.5379777385245703,0.21945462736073296 l -4.9182029111860635 11.766033389790666" fill="#ff9e0e" stroke="none" /><path d="M 108.09893153111575 80.62456947434976 l 8.010260004763698 -19.16329772864648 a41.77008052898843,41.77008052898843 0 0,0 0.6609941046756836,0.28300317974746253 l -8.338937867229697 19.022575020936227" fill="#faff18" stroke="none" /><path d="M 108.76106565485865 80.91482961587045 l 10.602254193855002 -23.09602914953152 a46.41327126654744,46.41327126654744 0 0,0 0.7232111258703156,0.33955732079858425 l -10.998243531024915 22.910106846092933" fill="#c3ff1e" stroke="none" /><path d="M 109.08828744355905 81.06846463323043 l 5.566921964533532 -11.596285957075875 a33.86329927186183,33.86329927186183 0 0,0 0.523314933692566,0.25678836523113796 l -5.76570816523653 11.498742431709905" fill="#ffa00e" stroke="none" /><path d="M 109.41281617654863 81.2277094730956 l 11.443661807711942 -22.822473117155624 a46.53081813715683,46.53081813715683 0 0,0 0.712895368549768,0.3651726967775293 l -11.834817663850465 22.622107895065593" fill="#c2ff1e" stroke="none" /><line stroke="#e1ed5e" stroke-width="0.3" x1="143.23703022742887" x2="145.7803849466894" y1="26.81831364943548" y2="22.513508569990506" /><path d="M 143.74570117128098 25.957352633546492 a86.0,86.0 0 0,1 28.547481713284135,27.462654790039103" fill="none" id="id14" stroke="none" /><text fill="#e1ed5e" style="font-size:6.75px; font-family:Arial;" text-anchor="middle"><textPath startOffset="19.985693538727396" xlink:href="#id14">February</textPath></text><path d="M 110.99172775467656 82.1063720568725 l 6.400024535170645 -10.418713091807366 a33.22742395356374,33.22742395356374 0 0,0 0.4847736340656678,0.3035652051787025 l -6.578417321608575 10.307003545305719" fill="#ff970d" stroke="none" /><path d="M 111.2981086023043 82.29822771554956 l 14.656270933722093 -22.963310031826403 a48.241877418791205,48.241877418791205 0 0,0 0.6961371236174511,0.45278694951466275 l -15.049375083123824 22.70762415815221" fill="#aeff20" stroke="none" /><path d="M 111.60114157652 82.49532879139004 l 7.014970918033812 -10.58471346532583 a33.69826665824553,33.69826665824553 0 0,0 0.4807544046403291,0.3246075200545701 l -7.196130017080683 10.46239403297259" fill="#ff9d0e" stroke="none" /><path d="M 111.90073688211348 82.69761687909136 l 3.439347844593687 -5.000439441919922 a27.069061559122602,27.069061559122602 0 0,0 0.3816336289690205,0.2673587456913391 l -3.5249126131463586 4.940495853464648" fill="#ff4306" stroke="none" /><path d="M 112.19680574252982 82.90503203632743 l 4.989253875654321 -6.992907566735506 a29.59030910227556,29.59030910227556 0 0,0 0.4120868803571241,0.2993986438125058 l -5.108886072365234 6.905989688106326" fill="#ff6609" stroke="none" /><path d="M 113.06298171725822 83.55741782278167 l 7.9132103880239635 -9.960483364896813 a33.72124708931937,33.72124708931937 0 0,0 0.45137752157022476,0.36498256457390515 l -8.08349130815868 9.82279470305878" fill="#ff9e0e" stroke="none" /><path d="M 113.34407831869373 83.78471172551755 l 5.75202562995666 -6.989673735749565 a30.05214547938253,30.05214547938253 0 0,0 0.39660598180090484,0.3321461039808214 l -5.871489148716682 6.889626474374924" fill="#ff6c0a" stroke="none" /><path d="M 114.42810811169701 84.74124197986012 l 7.372700215504692 -7.79715869000287 a31.73090826094372,31.73090826094372 0 0,0 0.3936396808272848,0.3786810610755376 l -7.505823139944395 7.6690945421650305" fill="#ff830c" stroke="none" /><path d="M 116.82858285166822 87.43820079747576 l 4.916188577241859 -3.669719208883577 a27.134798219913385,27.134798219913385 0 0,0 0.2761771848330566,0.37670536973812624 l -4.978628374588542 3.584551395473957" fill="#ff4406" stroke="none" /><path d="M 117.04232023915458 87.72973835380427 l 10.436710801722024 -7.514303831035113 a33.86039246772392,33.86039246772392 0 0,0 0.33648745697626864,0.4759376449922409 l -10.564510878502174 7.333539685711078" fill="#ff9f0e" stroke="none" /><path d="M 117.2510076193507 88.02491185347247 l 20.94658446411418 -14.540437339154835 a46.498700334059336,46.498700334059336 0 0,0 0.4507617983912179,0.6614373180546294 l -21.193770728174133 14.1777219978298" fill="#c2ff1e" stroke="none" /><path d="M 117.65298651832404 88.62581576622439 l 10.93360934488052 -7.044750580855732 a34.00662615949754,34.00662615949754 0 0,0 0.31281627232358594,0.49480021982562306 l -11.053253213450061 6.855502713315903" fill="#ffa10e" stroke="none" /><line stroke="#e1ed5e" stroke-width="0.3" x1="172.23445277983987" x2="176.4835382374775" y1="55.19839476539836" y2="52.563006222186495" /><path d="M 173.08426987136738 54.67131705675599 a86.0,86.0 0 0,1 12.851231095245387,41.99856678651699" fill="none" id="id15" stroke="none" /><text fill="#e1ed5e" style="font-size:6.75px; font-family:Arial;" text-anchor="middle"><textPath startOffset="22.20632615414155" xlink:href="#id15">March</textPath></text><path d="M 118.03404312379186 89.2402003453031 l 11.057760732445459 -6.597482843640381 a33.876367977350675,33.876367977350675 0 0,0 0.29446682087374154,0.5033392496956496 l -11.16968722778953 6.406164181590836" fill="#ffa00e" stroke="none" /><path d="M 118.21658344932153 89.55222093294921 l 11.149339341947753 -6.394494034093208 a33.85291102100834,33.85291102100834 0 0,0 0.28556116701803846,0.5079814523538038 l -11.257758150258226 6.201629071804611" fill="#ff9f0e" stroke="none" /><path d="M 118.73160827565052 90.50648371742162 l 24.031198302923052 -12.179443912204448 a47.94136867133787,47.94136867133787 0 0,0 0.3667286115409334,0.7393025027833147 l -24.237286927417394 11.763981820922185" fill="#b2ff20" stroke="none" /><path d="M 118.89224826269711 90.83032412892265 l 40.41959598218275 -19.61834234035219 a65.92908963629398,65.92908963629398 0 0,0 0.4867507207418939,1.025221154792688 l -40.7513048967664 18.91967876991896" fill="#36ff72" stroke="none" /><path d="M 119.34039704204932 91.81776055985345 l 11.791476053938876 -4.988557381542725 a33.80330474055657,33.80330474055657 0 0,0 0.2221010936082763,0.5378354150731599 l -11.87559883443335 4.784847396016262" fill="#ff9f0e" stroke="none" /><path d="M 119.47837535516314 92.15188598940014 l 11.805984299086605 -4.75679871124485 a33.72825201076645,33.72825201076645 0 0,0 0.21233773652565863,0.5403763786737206 l -11.886115585493965 4.5528733276753455" fill="#ff9e0e" stroke="none" /><path d="M 119.61058180528143 92.48833698450437 l 11.902980973166256 -4.559333467924007 a33.746312318442925,33.746312318442925 0 0,0 0.2031132872401079,0.5442426282304104 l -11.979698848907988 4.353767702664263" fill="#ff9e0e" stroke="none" /><path d="M 120.08093135843002 93.85539295169968 l 11.6285062076033 -3.558231435039852 a33.16072232910423,33.16072232910423 0 0,0 0.16232031918801007,0.5472634225488425 l -11.688032423903012 3.3575386257444797" fill="#ff960d" stroke="none" /><path d="M 120.28053869075195 94.5502522615342 l 12.257953966777258 -3.29393404816829 a33.692810443921104,33.692810443921104 0 0,0 0.14568717990031482,0.5613921336968104 l -12.312837478547875 3.0824454889226294" fill="#ff9d0e" stroke="none" /><path d="M 120.37134235888165 94.90015583598534 l 12.537149129393594 -3.1386005740089726 a33.92404433046498,33.92404433046498 0 0,0 0.13693553532006386,0.5676861990269708 l -12.589317464974478 2.9223291433225955" fill="#ffa00e" stroke="none" /><path d="M 120.6074358757038 95.95851677861258 l 43.50616938698427 -8.53233049782965 a65.33494601838555,65.33494601838555 0 0,0 0.20693841132387314,1.1054732680063064 l -43.646593522218 7.78217915236078" fill="#36ff6b" stroke="none" /><path d="M 120.67395015179393 96.31383870115 l 7.503833230793897 -1.337932008410923 a28.622176540509756,28.622176540509756 0 0,0 0.08230666478671081,0.4857785946843192 l -7.525751757100831 1.208567625410766" fill="#ff5808" stroke="none" /><path d="M 120.73433829027371 96.67025291283417 l 12.703817792430968 -2.0401181700635815 a33.86658729621453,33.86658729621453 0 0,0 0.08747917953062447,0.5763784933294338 l -12.737052865400893 1.821140564342066" fill="#ffa00e" stroke="none" /><path d="M 120.96714384426684 98.82574320788733 l 12.722087690480532 -0.7124956070010738 a33.74202359102635,33.74202359102635 0 0,0 0.027485917835366712,0.5801842837516353 l -12.732467216549395 0.49340021662643874" fill="#ff9e0e" stroke="none" /><path d="M 120.98425023603335 99.18683210126433 l 12.858199345240514 -0.49827250559274905 a33.867850088176084,33.867850088176084 0 0,0 0.017560166661450927,0.5827364418758522 l -12.864871206357611 0.2768659162918978" fill="#ffa00e" stroke="none" /><line stroke="#e1ed5e" stroke-width="0.3" x1="184.98032266829074" x2="189.97916517819016" y1="98.17113171792111" y2="98.06355123074" /><path d="M 185.9800911702706 98.14961562048488 a86.0,86.0 0 0,1 -9.607161424134198,41.387399972396054" fill="none" id="id16" stroke="none" /><text fill="#e1ed5e" style="font-size:6.75px; font-family:Arial;" text-anchor="middle"><textPath startOffset="21.466115282336823" xlink:href="#id16">April</textPath></text><path d="M 120.99980553446 99.90962569577887 l 12.674239635008638 -0.054544580742243984 a33.674357002898105,33.674357002898105 0 0,0 -0.0024946327839834173,0.5796648040063352 l -12.673300704935151 -0.16362970146777597" fill="#ff9d0e" stroke="none" /><path d="M 120.95626037817324 101.35467743843564 l 11.902132801956862 0.7693906491479294 a32.92697477176898,32.92697477176898 0 0,0 -0.04143066601155576,0.5652885209102784 l -11.887125577280969 -0.974152306554978" fill="#ff930d" stroke="none" /><path d="M 120.92983693683757 101.71520430193887 l 12.719754630553464 1.0423864231609556 a33.762395046255094,33.762395046255094 0 0,0 -0.05245294138271162,0.5788138373251133 l -12.699927092893676 -1.2611816490346395" fill="#ff9e0e" stroke="none" /><path d="M 120.89721153311464 102.0752229133903 l 12.716583115891712 1.2628356955813143 a33.77913299631147,33.77913299631147 0 0,0 -0.0624394381050804,0.5781116496389118 l -12.69296137628558 -1.4815436671050175" fill="#ff9e0e" stroke="none" /><path d="M 120.8583938346157 102.4346265915055 l 8.525745152544607 0.9951392243029206 a29.583625835384723,29.583625835384723 0 0,0 -0.06339135779039354,0.5052914929027255 l -8.507352285507364 -1.141748471493041" fill="#ff6609" stroke="none" /><path d="M 120.13307415673323 105.97154293290107 l 24.156459035495157 7.164893503811122 a46.19663096635164,46.19663096635164 0 0,0 -0.23268413126924511,0.7604252040016266 l -24.029548131719782 -7.579645680364806" fill="#c6ff1e" stroke="none" /><path d="M 120.02730092923936 106.31721596034902 l 24.042306902305505 7.583670182191754 a46.21000941326503,46.21000941326503 0 0,0 -0.2458102920035178,0.756526288967474 l -23.90820435928574 -7.996395371137023" fill="#c5ff1e" stroke="none" /><path d="M 119.9155931802556 106.66101706037122 l 24.218355858761964 8.100129385515213 a46.53704870504258,46.53704870504258 0 0,0 -0.26062779183592644,0.757506360240299 l -24.075337235982804 -8.515808448844814" fill="#c2ff1e" stroke="none" /><path d="M 119.79798401119884 107.00284435728193 l 11.956045598189483 4.229032936147759 a33.68194566779911,33.68194566779911 0 0,0 -0.1980430062911094,0.5449292972264069 l -11.881478330893149 -4.434210030380298" fill="#ff9d0e" stroke="none" /><path d="M 119.67450827220406 107.3425965602758 l 11.192073892765128 4.176921838675439 a32.946095348167894,32.946095348167894 0 0,0 -0.2028627901702793,0.5296107311623652 l -11.118516823001343 -4.368956136670948" fill="#ff930d" stroke="none" /><path d="M 119.12269723197855 108.67885076344098 l 11.502209730961201 5.220286683087455 a33.63139824994204,33.63139824994204 0 0,0 -0.24378821356236438,0.5250981235957071 l -11.410646900559005 -5.417504873961993" fill="#ff9c0e" stroke="none" /><path d="M 118.97047184881838 109.00673069616215 l 22.819281345143242 10.834054281494522 a46.2605687442538,46.2605687442538 0 0,0 -0.3477181011157904,0.7164022789980441 l -22.629409987412735 -11.225245516457843" fill="#c5ff1e" stroke="none" /><path d="M 118.81262510543309 109.33194174019688 l 50.65767720090737 25.128576670357475 a77.54772873307436,77.54772873307436 0 0,0 -0.6034739516482179,1.1907113581905613 l -50.21762457947288 -25.99684224025073" fill="#45ffef" stroke="none" /><path d="M 118.64920377521936 109.65438752849418 l 1.7057081167762753 0.8830171715823013 a22.920718486646514,22.920718486646514 0 0,0 -0.1843998999048692,0.348815117703328 l -1.690255708646513 -0.9122473043717636" fill="#ff0701" stroke="none" /><line stroke="#e1ed5e" stroke-width="0.3" x1="174.80103733775053" x2="179.2010983576182" y1="140.37084112569926" y2="142.7455964860345" /><path d="M 175.68104954172406 140.8457921977663 a86.0,86.0 0 0,1 -30.038265399797805,32.042727171017184" fill="none" id="id17" stroke="none" /><text fill="#e1ed5e" style="font-size:6.75px; font-family:Arial;" text-anchor="middle"><textPath startOffset="22.206326154141568" xlink:href="#id17">May</textPath></text><path d="M 118.48025628344425 109.97397251340804 l 1.2713165212075397 0.6861417852589595 a22.444657830274558,22.444657830274558 0 0,0 -0.186422752732799,0.3384114463589752 l -1.2593173590232312 -0.7079237500157398" fill="#ff0000" stroke="none" /><path d="M 117.94076556474637 110.91462005526583 l 8.145144789462718 4.955260150481238 a30.53404357029372,30.53404357029372 0 0,0 -0.27703880924095403,0.4466747715736577 l -8.0586413405538 -5.09473125342017" fill="#ff730a" stroke="none" /><path d="M 117.75023020441432 111.22182372390056 l 10.689103304988912 6.757728304014757 a33.646099054475535,33.646099054475535 0 0,0 -0.31370202672382547,0.4868725118837305 l -10.571196414888036 -6.940722415819939" fill="#ff9d0e" stroke="none" /><path d="M 117.55443506779139 111.5257021239791 l 16.890605421334964 11.089851996271989 a41.20587461107407,41.20587461107407 0 0,0 -0.39439299217433815,0.5895640113567577 l -16.697209323749902 -11.378952921834554" fill="#fffd17" stroke="none" /><path d="M 117.35343817320211 111.8261652097733 l 10.473153724679849 7.137331805905869 a33.67392813015645,33.67392813015645 0 0,0 -0.3305482379541844,0.4761793902255369 l -10.348744579563528 -7.316552458318425" fill="#ff9d0e" stroke="none" /><path d="M 116.93607887273984 112.41649034213515 l 10.136298363150967 7.43130990808285 a33.56856839328916,33.56856839328916 0 0,0 -0.3456583194392389,0.4630658055641218 l -10.006878777016636 -7.604688593156287" fill="#ff9c0e" stroke="none" /><path d="M 116.71984013943494 112.70617746262583 l 24.014297155535257 18.24957169170481 a51.16178600157859,51.16178600157859 0 0,0 -0.5388875372617734,0.6965847846818981 l -23.696602801055413 -18.66023447049996" fill="#8eff24" stroke="none" /><path d="M 116.498646956653 112.99209946851258 l 9.922854732636706 7.813896256870383 a33.630123544848786,33.630123544848786 0 0,0 -0.36205564518441097,0.45172008596793284 l -9.786881175397442 -7.983544176416566" fill="#ff9c0e" stroke="none" /><path d="M 116.27256486870786 113.27417163493432 l 9.783687147103613 7.9809386818236 a33.62600160127618,33.62600160127618 0 0,0 -0.3697322989200374,0.44536637207949037 l -9.644858848290033 -8.14816631101686" fill="#ff9c0e" stroke="none" /><path d="M 116.0416608686014 113.55231037782055 l 9.645805280078465 8.1489658751925 a33.6272405669743,33.6272405669743 0 0,0 -0.3773576724796603,0.43895222530534 l -9.504105098028026 -8.313795199659367" fill="#ff9c0e" stroke="none" /><path d="M 114.81725581225074 114.88116024355365 l 8.911826715346594 8.950261984692721 a33.630433286273316,33.630433286273316 0 0,0 -0.4137344781491136,0.40492626643350077 l -8.756442284821686 -9.102338354048795" fill="#ff9c0e" stroke="none" /><path d="M 114.55890576462653 115.13401014063108 l 9.19976045080948 9.563168427960422 a34.269882544085206,34.269882544085206 0 0,0 -0.42864143352224604,0.405307229844587 l -9.033783182896427 -9.72011029455093" fill="#ffa50f" stroke="none" /><path d="M 114.29624159901734 115.38237550388516 l 17.14189894068936 18.444227073880686 a46.18003597387582,46.18003597387582 0 0,0 -0.5869272574792327,0.5361441337963208 l -16.821872133743263 -18.73656397426359" fill="#c6ff1e" stroke="none" /><path d="M 114.0293411484842 115.62618273729858 l 3.9863621295791085 4.440096112466417 a26.967037499134882,26.967037499134882 0 0,0 -0.34807722540930086,0.3071376811786645 l -3.9093425512632196 -4.50805693541737" fill="#ff4106" stroke="none" /><path d="M 113.48314897796784 116.09983520530334 l 40.449446933903516 48.299505615910014 a84.0,84.0 0 0,0 -1.1165194858212355,0.9188195245712865 l -39.612057319537584 -48.98862025933848" fill="#4dd2ff" stroke="none" /><path d="M 112.63410532772338 116.77436683061366 l 7.73963726767332 10.275956333762434 a33.864573976955086,33.864573976955086 0 0,0 -0.4686454365750248,0.3466926902481646 l -7.561606860679731 -10.407658972750367" fill="#ffa00e" stroke="none" /><path d="M 112.34349029814194 116.9893568818739 l 5.062834585059187 6.968393989211639 a29.613408664666522,29.613408664666522 0 0,0 -0.4149722332978291,0.2960716702618501 l -4.942135023912473 -7.054509921317708" fill="#ff6609" stroke="none" /><path d="M 112.04921762599082 117.19931262002967 l 7.347172334226433 10.487511950735664 a33.805032144654916,33.805032144654916 0 0,0 -0.4794569566375045,0.3297748666972202 l -7.165558492966045 -10.61242760679798" fill="#ff9f0e" stroke="none" /><path d="M 111.45004920935366 117.60387380957326 l 4.756793559956525 7.313330452698748 a29.72421270272652,29.72421270272652 0 0,0 -0.43130993001659823,0.27528240405963633 l -4.630201827892996 -7.394127285582194" fill="#ff6809" stroke="none" /><path d="M 111.1453310114006 117.79835938074945 l 6.891272476722436 11.00490815444698 a33.98451538703874,33.98451538703874 0 0,0 -0.49847321997278277,0.30620296478457976 l -6.700820056817344 -11.121899586059937" fill="#ffa10e" stroke="none" /><line stroke="#e1ed5e" stroke-width="0.3" x1="143.8653032363475" x2="146.44561519142675" y1="172.8068346515853" y2="177.08958963109032" /><path d="M 144.38136562736335 173.6633856474863 a86.0,86.0 0 0,1 -40.68145358897372,12.25698825130547" fill="none" id="id18" stroke="none" /><text fill="#e1ed5e" style="font-size:6.75px; font-family:Arial;" text-anchor="middle"><textPath startOffset="21.466115282336833" xlink:href="#id18">June</textPath></text><line stroke="#e1ed5e" stroke-width="0.3" x1="102.19456741930631" x2="102.32365962044197" y1="184.97166512339345" y2="189.96999836594603" /><path d="M 102.22038585953345 185.97133177190398 a86.0,86.0 0 0,1 -42.740103519485714,-10.115201625700543" fill="none" id="id19" stroke="none" /><text fill="#e1ed5e" style="font-size:6.75px; font-family:Arial;" text-anchor="middle"><textPath startOffset="22.20632615414155" xlink:href="#id19">July</textPath></text><line stroke="#e1ed5e" stroke-width="0.3" x1="58.666819895761336" x2="56.23545636021788" y1="174.27360380694188" y2="178.64263932499728" /><path d="M 58.180547188652646 175.14741091055294 a86.0,86.0 0 0,1 -31.652253787137756,-30.449443065178592" fill="none" id="id20" stroke="none" /><text fill="#e1ed5e" style="font-size:6.75px; font-family:Arial;" text-anchor="middle"><textPath startOffset="22.20632615414155" xlink:href="#id20">August</textPath></text><line stroke="#e1ed5e" stroke-width="0.3" x1="26.63291911575756" x2="22.317208475507996" y1="142.92168965132927" y2="145.44649492493687" /><path d="M 25.769776987707644 143.4266507060508 a86.0,86.0 0 0,1 -11.730757126820373,-40.83630448921669" fill="none" id="id21" stroke="none" /><text fill="#e1ed5e" style="font-size:6.75px; font-family:Arial;" text-anchor="middle"><textPath startOffset="21.46611528233685" xlink:href="#id21">September</textPath></text><line stroke="#e1ed5e" stroke-width="0.3" x1="15.007084014347285" x2="10.007500721073583" y1="101.09737516637583" y2="101.16192664675087" /><path d="M 14.007167355692545 101.11028546245083 a86.0,86.0 0 0,1 10.666146001902534,-42.60595125391555" fill="none" id="id22" stroke="none" /><text fill="#e1ed5e" style="font-size:6.75px; font-family:Arial;" text-anchor="middle"><textPath startOffset="22.20632615414155" xlink:href="#id22">October</textPath></text><line stroke="#e1ed5e" stroke-width="0.3" x1="26.266209847984243" x2="21.928928074336255" y1="57.711370442889674" y2="55.22380399835377" /><path d="M 25.398753493254645 57.213857153982495 a86.0,86.0 0 0,1 29.58750427330803,-30.492523968695096" fill="none" id="id23" stroke="none" /><text fill="#e1ed5e" style="font-size:6.75px; font-family:Arial;" text-anchor="middle"><textPath startOffset="21.46611528233685" xlink:href="#id23">November</textPath></text><line stroke="#e1ed5e" stroke-width="0.3" x1="56.762969772571076" x2="54.21961505331055" y1="26.818313649435495" y2="22.513508569990535" /><path d="M 56.25429882871897 25.957352633546506 a86.0,86.0 0 0,1 42.265352541879196,-11.944610805530505" fill="none" id="id24" stroke="none" /><text fill="#e1ed5e" style="font-size:6.75px; font-family:Arial;" text-anchor="middle"><textPath startOffset="22.20632615414155" xlink:href="#id24">December</textPath></text></svg>